<?xml version="1.0" encoding="UTF-8"?>
<svg width="255px" height="254px" viewBox="0 0 255 254" version="1.1" xmlns="http://www.w3.org/2000/svg" xmlns:xlink="http://www.w3.org/1999/xlink">
    <!-- Generator: Sketch 51.2 (57519) - http://www.bohemiancoding.com/sketch -->
    <title>bootstrap-icon</title>
    <desc>Created with Sketch.</desc>
    <defs>
        <rect id="path-1" x="21.9" y="23.5222222" width="195.477778" height="194.666667" rx="15"></rect>
        <filter x="-21.7%" y="-21.8%" width="148.6%" height="148.8%" filterUnits="objectBoundingBox" id="filter-2">
            <feOffset dx="5" dy="5" in="SourceAlpha" result="shadowOffsetOuter1"></feOffset>
            <feGaussianBlur stdDeviation="15" in="shadowOffsetOuter1" result="shadowBlurOuter1"></feGaussianBlur>
            <feColorMatrix values="0 0 0 0 0   0 0 0 0 0   0 0 0 0 0  0 0 0 0.296393795 0" type="matrix" in="shadowBlurOuter1"></feColorMatrix>
        </filter>
    </defs>
    <g id="Page-6" stroke="none" stroke-width="1" fill="none" fill-rule="evenodd">
        <g id="Group-3" transform="translate(-877.000000, -319.000000)">
            <g id="Group-2" transform="translate(41.000000, 41.000000)">
                <g id="bootstrap-icon" transform="translate(839.000000, 279.000000)">
                    <g id="Rectangle-2">
                        <use fill="black" fill-opacity="1" filter="url(#filter-2)" xlink:href="#path-1"></use>
                        <use fill="#FFFFFF" fill-rule="evenodd" xlink:href="#path-1"></use>
                    </g>
                    <rect id="Rectangle-2" fill="#FFFFFF" x="0" y="0" width="219" height="219" rx="17"></rect>
                    <g id="bootstrap-solid" transform="translate(34.066667, 33.255556)" fill-rule="nonzero">
                        <path d="M150.866667,125.722222 C150.866667,139.551667 139.551667,150.866667 125.722222,150.866667 L25.1444444,150.866667 C11.315,150.866667 0,139.551667 0,125.722222 L0,25.1444444 C0,11.315 11.315,0 25.1444444,0 L125.722222,0 C139.551667,0 150.866667,11.315 150.866667,25.1444444 L150.866667,125.722222 Z" id="bg" fill="#563D7C"></path>
                        <g id="B" transform="translate(41.366667, 32.444444)" fill="#FFFFFF">
                            <path d="M0.0738527326,0 L42.7853497,0 C50.6629746,0 56.989692,1.794631 61.7408844,5.40847698 C66.4920769,9.02232297 68.8799819,14.4553839 68.8799819,21.7568279 C68.8799819,26.1819454 67.7968085,29.9678793 65.6304617,33.1146295 C63.4641149,36.2613798 60.3623001,38.7197784 56.3250174,40.4406574 L56.3250174,40.6864973 C61.7408844,41.8419447 65.8520199,44.3986792 68.6338061,48.356701 C71.4155924,52.3393068 72.8187943,57.305272 72.8187943,63.3037647 C72.8187943,66.7455228 72.2033549,69.966025 70.972476,72.9406873 C69.7415971,75.9399337 67.8214261,78.5212522 65.1873453,80.684643 C62.5532645,82.8480338 59.205274,84.5689128 55.0941385,85.8472801 C50.9830031,87.1256474 46.1087227,87.7648311 40.4466799,87.7648311 L0.0738527326,87.7648311 L0.0738527326,0 Z M15.4598387,36.7530595 L40.5697678,36.7530595 C44.2624044,36.7530595 47.3396016,35.7205321 49.8013593,33.6063093 C52.2631171,31.4920864 53.493996,28.4928401 53.493996,24.5594023 C53.493996,20.1342848 52.386205,17.0121185 50.170623,15.2174875 C47.955041,13.4228565 44.7547559,12.513249 40.5697678,12.513249 L15.4598387,12.513249 L15.4598387,36.7530595 Z M15.4598387,75.2269981 L42.6622619,75.2269981 C47.3396016,75.2269981 50.9830031,74.0223827 53.5432311,71.5885681 C56.1280768,69.1793374 57.4328084,65.7375793 57.4328084,61.3124618 C57.4328084,56.9610962 56.1526943,53.6422581 53.5432311,51.2821954 C50.9337679,48.9221327 47.3396016,47.7912693 42.6622619,47.7912693 L15.4598387,47.7912693 L15.4598387,75.2269981 Z" id="Shape"></path>
                        </g>
                    </g>
                </g>
            </g>
        </g>
    </g>
</svg>