<?xml version="1.0" encoding="UTF-8"?>
<svg width="255px" height="254px" viewBox="0 0 255 254" version="1.1" xmlns="http://www.w3.org/2000/svg" xmlns:xlink="http://www.w3.org/1999/xlink">
    <!-- Generator: Sketch 51.2 (57519) - http://www.bohemiancoding.com/sketch -->
    <title>github-icon</title>
    <desc>Created with Sketch.</desc>
    <defs>
        <rect id="path-1" x="22.7111111" y="23.5222222" width="195.477778" height="194.666667" rx="15"></rect>
        <filter x="-21.7%" y="-21.8%" width="148.6%" height="148.8%" filterUnits="objectBoundingBox" id="filter-2">
            <feOffset dx="5" dy="5" in="SourceAlpha" result="shadowOffsetOuter1"></feOffset>
            <feGaussianBlur stdDeviation="15" in="shadowOffsetOuter1" result="shadowBlurOuter1"></feGaussianBlur>
            <feColorMatrix values="0 0 0 0 0   0 0 0 0 0   0 0 0 0 0  0 0 0 0.296393795 0" type="matrix" in="shadowBlurOuter1"></feColorMatrix>
        </filter>
    </defs>
    <g id="Page-6" stroke="none" stroke-width="1" fill="none" fill-rule="evenodd">
        <g id="Group-3" transform="translate(-318.000000, -319.000000)">
            <g id="Group-2" transform="translate(41.000000, 41.000000)">
                <g id="github-icon" transform="translate(279.000000, 279.000000)">
                    <g id="Rectangle-2">
                        <use fill="black" fill-opacity="1" filter="url(#filter-2)" xlink:href="#path-1"></use>
                        <use fill="#FFFFFF" fill-rule="evenodd" xlink:href="#path-1"></use>
                    </g>
                    <rect id="Rectangle-2" fill="#FFFFFF" x="0" y="0" width="219" height="219" rx="17"></rect>
                    <path d="M109.495285,38.9333333 C67.8419417,38.9333333 34.0666667,72.8377631 34.0666667,114.670424 C34.0666667,148.125193 55.6783167,176.510627 85.6583521,186.526231 C89.4300187,187.222022 90.8066771,184.883786 90.8066771,182.876878 C90.8066771,181.078235 90.7406729,176.316563 90.7029563,169.997644 C69.7183458,174.574719 65.2913521,159.844775 65.2913521,159.844775 C61.86385,151.097688 56.9182521,148.768918 56.9182521,148.768918 C50.0679625,144.068779 57.4368563,144.163444 57.4368563,144.163444 C65.0037625,144.698304 68.9875854,151.96861 68.9875854,151.96861 C75.7200104,163.541461 86.6437,160.199771 90.9434,158.259129 C91.6270146,153.364925 93.5788521,150.027968 95.7334167,148.134659 C78.9825021,146.222417 61.3735333,139.728368 61.3735333,110.708675 C61.3735333,102.439648 64.3107187,95.6805354 69.1384521,90.3840036 C68.3605458,88.4670284 65.7722396,80.7707275 69.8739271,70.3433286 C69.8739271,70.3433286 76.2103271,68.3080215 90.6180938,78.1058952 C96.6386167,76.4255835 103.088167,75.5877943 109.504715,75.5546614 C115.911833,75.5877943 122.366098,76.4255835 128.391335,78.1058952 C142.789673,68.3080215 149.111929,70.3433286 149.111929,70.3433286 C153.22776,80.7707275 150.639454,88.4670284 149.861548,90.3840036 C154.69871,95.6805354 157.617037,102.439648 157.617037,110.708675 C157.617037,139.799367 139.979781,146.203484 123.177006,148.07786 C125.883177,150.416097 128.297044,155.035771 128.297044,162.102546 C128.297044,172.227016 128.202752,180.39191 128.202752,182.876878 C128.202752,184.902719 129.560552,187.259889 133.388794,186.516765 C163.340542,176.482227 184.933333,148.115726 184.933333,114.670424 C184.933333,72.8377631 151.158058,38.9333333 109.495285,38.9333333" id="Github" fill="#3E75C3"></path>
                </g>
            </g>
        </g>
    </g>
</svg>