<?xml version="1.0" encoding="UTF-8"?>
<svg width="26px" height="26px" viewBox="0 0 26 26" version="1.1" xmlns="http://www.w3.org/2000/svg" xmlns:xlink="http://www.w3.org/1999/xlink">
    <!-- Generator: Sketch 51.2 (57519) - http://www.bohemiancoding.com/sketch -->
    <title>Instagram-black</title>
    <desc>Created with Sketch.</desc>
    <defs></defs>
    <g id="Page-4" stroke="none" stroke-width="1" fill="none" fill-rule="evenodd">
        <path d="M13.0000258,0 C16.530588,0 16.9732951,0.0149650386 18.3598834,0.0782310292 C19.7435818,0.141342209 20.6885982,0.361121862 21.515494,0.682508966 C22.3703589,1.01468122 23.0953376,1.45919447 23.8180974,2.18190262 C24.5408055,2.90466238 24.9853188,3.6296411 25.3175426,4.48450602 C25.6388781,5.31140181 25.8586578,6.2564182 25.921769,7.64011662 C25.985035,9.02670485 26,9.46941198 26,13.0000258 C26,16.530588 25.985035,16.9732951 25.921769,18.3598834 C25.8586578,19.7435818 25.6388781,20.6885982 25.3175426,21.515494 C24.9853188,22.3703589 24.5408055,23.0953376 23.8180974,23.8180974 C23.0953376,24.5408055 22.3703589,24.9853188 21.515494,25.3175426 C20.6885982,25.6388781 19.7435818,25.8586578 18.3598834,25.921769 C16.9732951,25.985035 16.530588,26 13.0000258,26 C9.46941198,26 9.02670485,25.985035 7.64011662,25.921769 C6.2564182,25.8586578 5.31140181,25.6388781 4.48450602,25.3175426 C3.6296411,24.9853188 2.90466238,24.5408055 2.18190262,23.8180974 C1.45919447,23.0953376 1.01468122,22.3703589 0.682508966,21.515494 C0.361121862,20.6885982 0.141342209,19.7435818 0.0782310292,18.3598834 C0.0149650386,16.9732951 -5.68434189e-14,16.530588 -5.68434189e-14,13.0000258 C-5.68434189e-14,9.46941198 0.0149650386,9.02670485 0.0782310292,7.64011662 C0.141342209,6.2564182 0.361121862,5.31140181 0.682508966,4.48450602 C1.01468122,3.6296411 1.45919447,2.90466238 2.18190262,2.18190262 C2.90466238,1.45919447 3.6296411,1.01468122 4.48450602,0.682508966 C5.31140181,0.361121862 6.2564182,0.141342209 7.64011662,0.0782310292 C9.02670485,0.0149650386 9.46941198,0 13.0000258,0 Z M13.0000258,2.34233816 C9.5288593,2.34233816 9.11768197,2.35560028 7.74688443,2.41814382 C6.47939727,2.47593983 5.7910571,2.68772093 5.33297211,2.86575328 C4.7261656,3.10158165 4.29310834,3.3832856 3.83822277,3.83822277 C3.3832856,4.29310834 3.10158165,4.7261656 2.86575328,5.33297211 C2.68772093,5.7910571 2.47593983,6.47939727 2.41814382,7.74688443 C2.35560028,9.11768197 2.34233816,9.5288593 2.34233816,13.0000258 C2.34233816,16.4711407 2.35560028,16.882318 2.41814382,18.2531156 C2.47593983,19.5206027 2.68772093,20.2089429 2.86575328,20.6670279 C3.10158165,21.2738344 3.3833372,21.7068917 3.83822277,22.1617772 C4.29310834,22.6167144 4.7261656,22.8984184 5.33297211,23.1342467 C5.7910571,23.3122791 6.47939727,23.5240602 7.74688443,23.5818562 C9.11752716,23.6443997 9.52860128,23.6576618 13.0000258,23.6576618 C16.4713987,23.6576618 16.8825244,23.6443997 18.2531156,23.5818562 C19.5206027,23.5240602 20.2089429,23.3122791 20.6670279,23.1342467 C21.2738344,22.8984184 21.7068917,22.6167144 22.1617772,22.1617772 C22.6167144,21.7068917 22.8984184,21.2738344 23.1342467,20.6670279 C23.3122791,20.2089429 23.5240602,19.5206027 23.5818562,18.2531156 C23.6443997,16.882318 23.6576618,16.4711407 23.6576618,13.0000258 C23.6576618,9.5288593 23.6443997,9.11768197 23.5818562,7.74688443 C23.5240602,6.47939727 23.3122791,5.7910571 23.1342467,5.33297211 C22.8984184,4.7261656 22.6167144,4.29310834 22.1617772,3.83822277 C21.7068917,3.3832856 21.2738344,3.10158165 20.6670279,2.86575328 C20.2089429,2.68772093 19.5206027,2.47593983 18.2531156,2.41814382 C16.882318,2.35560028 16.4711407,2.34233816 13.0000258,2.34233816 Z M13.0000258,6.32432851 C16.6868953,6.32432851 19.6756715,9.31310473 19.6756715,13.0000258 C19.6756715,16.6868953 16.6868953,19.6756715 13.0000258,19.6756715 C9.31310473,19.6756715 6.32432851,16.6868953 6.32432851,13.0000258 C6.32432851,9.31310473 9.31310473,6.32432851 13.0000258,6.32432851 Z M13.0000258,17.3333333 C15.3932451,17.3333333 17.3333333,15.3932451 17.3333333,13.0000258 C17.3333333,10.6067549 15.3932451,8.66666667 13.0000258,8.66666667 C10.6067549,8.66666667 8.66666667,10.6067549 8.66666667,13.0000258 C8.66666667,15.3932451 10.6067549,17.3333333 13.0000258,17.3333333 Z M21.4994453,6.0605826 C21.4994453,6.922156 20.8009908,7.62055887 19.9394174,7.62055887 C19.0778956,7.62055887 18.3794411,6.922156 18.3794411,6.0605826 C18.3794411,5.19900921 19.0778956,4.50055474 19.9394174,4.50055474 C20.8009908,4.50055474 21.4994453,5.19900921 21.4994453,6.0605826 Z" id="Instagram" fill="#4D4D4D"></path>
    </g>
</svg>