<?xml version="1.0" encoding="UTF-8"?>
<svg width="255px" height="254px" viewBox="0 0 255 254" version="1.1" xmlns="http://www.w3.org/2000/svg" xmlns:xlink="http://www.w3.org/1999/xlink">
    <!-- Generator: Sketch 51.2 (57519) - http://www.bohemiancoding.com/sketch -->
    <title>shopify-icon</title>
    <desc>Created with Sketch.</desc>
    <defs>
        <rect id="path-1" x="23.5222222" y="23.5222222" width="195.477778" height="194.666667" rx="15"></rect>
        <filter x="-21.7%" y="-21.8%" width="148.6%" height="148.8%" filterUnits="objectBoundingBox" id="filter-2">
            <feOffset dx="5" dy="5" in="SourceAlpha" result="shadowOffsetOuter1"></feOffset>
            <feGaussianBlur stdDeviation="15" in="shadowOffsetOuter1" result="shadowBlurOuter1"></feGaussianBlur>
            <feColorMatrix values="0 0 0 0 0   0 0 0 0 0   0 0 0 0 0  0 0 0 0.296393795 0" type="matrix" in="shadowBlurOuter1"></feColorMatrix>
        </filter>
    </defs>
    <g id="Page-6" stroke="none" stroke-width="1" fill="none" fill-rule="evenodd">
        <g id="Group-3" transform="translate(-600.000000, -319.000000)">
            <g id="Group-2" transform="translate(41.000000, 41.000000)">
                <g id="shopify-icon" transform="translate(560.000000, 279.000000)">
                    <g id="Rectangle-2">
                        <use fill="black" fill-opacity="1" filter="url(#filter-2)" xlink:href="#path-1"></use>
                        <use fill="#FFFFFF" fill-rule="evenodd" xlink:href="#path-1"></use>
                    </g>
                    <rect id="Rectangle-2" fill="#FFFFFF" x="0" y="0" width="219" height="219" rx="17"></rect>
                    <path d="M139.267742,194.342679 L144.871409,48.6473423 C147.696771,51.4667147 150.898663,54.6600246 150.898663,54.6600246 C150.898663,54.6600246 164.08254,55.6406579 164.704472,55.6945389 C165.331765,55.7484198 166.087734,56.2279603 166.205686,57.0954437 C166.323639,57.962927 184.933333,184.416134 184.933333,184.416134 L139.267742,194.342679 Z M132.017689,195.918658 L131.913664,195.94127 L34.0666667,177.519372 C34.0666667,177.519372 46.6232512,79.9248032 47.1004229,76.4818103 C47.727716,71.939646 47.8778374,71.7887794 52.6817229,70.2747246 C53.4591374,70.0268722 59.5658623,68.1248746 68.1656752,65.4469913 C71.4790694,51.3247937 82.0519066,23.5222222 104.178732,23.5222222 C107.068569,23.5222222 110.414132,25.0847698 113.116318,28.6732413 C113.384392,28.657077 113.657827,28.6463008 113.92054,28.6463008 C123.41572,28.6463008 128.814729,36.7769365 131.876134,45.6241889 C135.001876,44.6543317 136.889117,44.0670294 137.001708,44.0347008 C137.212833,43.9719454 137.516314,43.9029747 137.866189,43.8576638 L132.017689,195.918658 Z M112.392518,50.721327 C112.392518,44.0885817 111.502513,39.1692508 110.146058,35.7424222 C104.747049,38.0700794 98.5759859,44.2394484 95.2840376,57.0092341 C101.149496,55.1826698 106.99887,53.3614937 112.387157,51.685796 C112.387157,51.3732865 112.392518,51.060777 112.392518,50.721327 Z M103.567523,29.4868437 C87.6760984,29.4868437 78.7492353,50.4573103 74.9908383,63.3240817 C79.2317685,62.0039984 83.8158333,60.5761532 88.5071277,59.1159794 C91.7186538,42.2512413 99.31587,33.8027079 106.409107,30.4513127 C105.486933,29.8155175 104.527228,29.4868437 103.567523,29.4868437 Z M107.379535,104.677713 L113.92054,85.1350913 C113.92054,85.1350913 109.497319,82.5595817 100.554372,82.5595817 C77.3391663,82.5595817 65.8387931,98.1419532 65.8387931,114.241582 C65.8387931,133.374708 84.8345144,133.897353 84.8345144,145.541027 C84.8345144,148.353613 82.850767,152.206101 77.9879053,152.206101 C70.535449,152.206101 61.7050926,144.587334 61.7050926,144.587334 L57.2068114,159.517746 C57.2068114,159.517746 65.7959013,170.024532 82.593416,170.024532 C96.5922385,170.024532 106.972062,159.431537 106.972062,142.98707 C106.972062,122.08126 83.8211948,118.65982 83.8211948,109.731746 C83.8211948,108.099153 84.3412583,101.606498 94.6352986,101.606498 C101.653475,101.606498 107.379535,104.677713 107.379535,104.677713 Z M118.188277,49.8807841 C121.217513,48.9378675 124.010844,48.0703841 126.466401,47.3052746 C124.370063,40.8665008 121.110283,35.2682698 116.215253,34.654027 C117.432309,38.161677 118.193639,42.5906913 118.193639,48.0865484 C118.193639,48.7169556 118.188277,49.2934817 118.188277,49.8807841 Z" id="Shopify" fill="#81BF37"></path>
                </g>
            </g>
        </g>
    </g>
</svg>