<?xml version="1.0" encoding="UTF-8"?>
<svg width="370px" height="148px" viewBox="0 0 370 148" version="1.1" xmlns="http://www.w3.org/2000/svg" xmlns:xlink="http://www.w3.org/1999/xlink">
    <!-- Generator: Sketch 51.2 (57519) - http://www.bohemiancoding.com/sketch -->
    <title>DESIGNER. DEVELOPER.</title>
    <desc>Created with Sketch.</desc>
    <defs>
        <path d="M2.4375,10.09375 L12.953125,10.09375 C15.026052,10.09375 16.7005145,10.3749972 17.9765625,10.9375 C19.2526105,11.5000028 20.3072875,12.3072864 21.140625,13.359375 C21.9739625,14.4114636 22.5781231,15.6354097 22.953125,17.03125 C23.3281269,18.4270903 23.515625,19.9062422 23.515625,21.46875 C23.515625,23.9166789 23.236982,25.8150974 22.6796875,27.1640625 C22.122393,28.5130276 21.3489633,29.6432246 20.359375,30.5546875 C19.3697867,31.4661504 18.3072973,32.0729152 17.171875,32.375 C15.6197839,32.7916687 14.213548,33 12.953125,33 L2.4375,33 L2.4375,10.09375 Z M9.515625,15.28125 L9.515625,27.796875 L11.25,27.796875 C12.7291741,27.796875 13.7812469,27.6328141 14.40625,27.3046875 C15.0312531,26.9765609 15.5208316,26.4036499 15.875,25.5859375 C16.2291684,24.7682251 16.40625,23.4427175 16.40625,21.609375 C16.40625,19.1822795 16.0104206,17.5208378 15.21875,16.625 C14.4270794,15.7291622 13.1145925,15.28125 11.28125,15.28125 L9.515625,15.28125 Z M26.21875,10.09375 L45.1875,10.09375 L45.1875,14.984375 L33.3125,14.984375 L33.3125,18.625 L44.328125,18.625 L44.328125,23.296875 L33.3125,23.296875 L33.3125,27.8125 L45.53125,27.8125 L45.53125,33 L26.21875,33 L26.21875,10.09375 Z M47.109375,25.421875 L53.84375,25 C53.9895841,26.0937555 54.2864561,26.9270805 54.734375,27.5 C55.4635453,28.427088 56.5052016,28.890625 57.859375,28.890625 C58.8697967,28.890625 59.6484348,28.6536482 60.1953125,28.1796875 C60.7421902,27.7057268 61.015625,27.1562531 61.015625,26.53125 C61.015625,25.937497 60.7552109,25.4062523 60.234375,24.9375 C59.7135391,24.4687477 58.5052178,24.0260437 56.609375,23.609375 C53.5051928,22.9114548 51.2916733,21.9843808 49.96875,20.828125 C48.63541,19.6718692 47.96875,18.1979256 47.96875,16.40625 C47.96875,15.2291608 48.3098924,14.1171927 48.9921875,13.0703125 C49.6744826,12.0234323 50.700514,11.2005238 52.0703125,10.6015625 C53.440111,10.0026012 55.3176964,9.703125 57.703125,9.703125 C60.630223,9.703125 62.8619715,10.2473904 64.3984375,11.3359375 C65.9349035,12.4244846 66.8489569,14.1562381 67.140625,16.53125 L60.46875,16.921875 C60.2916658,15.8906198 59.9192737,15.1406273 59.3515625,14.671875 C58.7838513,14.2031227 58.000005,13.96875 57,13.96875 C56.1770792,13.96875 55.5572937,14.1432274 55.140625,14.4921875 C54.7239563,14.8411476 54.515625,15.2656225 54.515625,15.765625 C54.515625,16.1302102 54.6874983,16.4583319 55.03125,16.75 C55.364585,17.0520848 56.1562438,17.333332 57.40625,17.59375 C60.5000155,18.26042 62.7161391,18.9348924 64.0546875,19.6171875 C65.3932359,20.2994826 66.3671845,21.1458283 66.9765625,22.15625 C67.5859405,23.1666717 67.890625,24.2968687 67.890625,25.546875 C67.890625,27.0156323 67.4843791,28.3697855 66.671875,29.609375 C65.8593709,30.8489645 64.7239656,31.7890593 63.265625,32.4296875 C61.8072844,33.0703157 59.9687611,33.390625 57.75,33.390625 C53.8541472,33.390625 51.1562575,32.6406325 49.65625,31.140625 C48.1562425,29.6406175 47.3072927,27.7343866 47.109375,25.421875 Z M70.734375,10.09375 L77.828125,10.09375 L77.828125,33 L70.734375,33 L70.734375,10.09375 Z M93.421875,24.703125 L93.421875,19.9375 L104.359375,19.9375 L104.359375,29.703125 C102.265615,31.1302155 100.414071,32.1015599 98.8046875,32.6171875 C97.1953045,33.1328151 95.2864694,33.390625 93.078125,33.390625 C90.3593614,33.390625 88.1432377,32.927088 86.4296875,32 C84.7161373,31.072912 83.3880255,29.6927175 82.4453125,27.859375 C81.5025995,26.0260325 81.03125,23.9218869 81.03125,21.546875 C81.03125,19.0468625 81.5468698,16.8724051 82.578125,15.0234375 C83.6093802,13.1744699 85.1197817,11.7708381 87.109375,10.8125 C88.6614661,10.072913 90.7499869,9.703125 93.375,9.703125 C95.9062627,9.703125 97.7994729,9.93228937 99.0546875,10.390625 C100.309902,10.8489606 101.351558,11.559891 102.179688,12.5234375 C103.007817,13.486984 103.630206,14.7083259 104.046875,16.1875 L97.21875,17.40625 C96.9374986,16.5416623 96.4609409,15.8802106 95.7890625,15.421875 C95.1171841,14.9635394 94.2604219,14.734375 93.21875,14.734375 C91.6666589,14.734375 90.4296921,15.2734321 89.5078125,16.3515625 C88.5859329,17.4296929 88.125,19.135405 88.125,21.46875 C88.125,23.9479291 88.5911412,25.7187447 89.5234375,26.78125 C90.4557338,27.8437553 91.7552,28.375 93.421875,28.375 C94.2135456,28.375 94.9687464,28.2604178 95.6875,28.03125 C96.4062536,27.8020822 97.229162,27.4114611 98.15625,26.859375 L98.15625,24.703125 L93.421875,24.703125 Z M107.609375,10.09375 L114.21875,10.09375 L122.84375,22.765625 L122.84375,10.09375 L129.515625,10.09375 L129.515625,33 L122.84375,33 L114.265625,20.421875 L114.265625,33 L107.609375,33 L107.609375,10.09375 Z M133.203125,10.09375 L152.171875,10.09375 L152.171875,14.984375 L140.296875,14.984375 L140.296875,18.625 L151.3125,18.625 L151.3125,23.296875 L140.296875,23.296875 L140.296875,27.8125 L152.515625,27.8125 L152.515625,33 L133.203125,33 L133.203125,10.09375 Z M155.421875,33 L155.421875,10.09375 L167.21875,10.09375 C169.406261,10.09375 171.078119,10.2812481 172.234375,10.65625 C173.390631,11.0312519 174.322913,11.7265574 175.03125,12.7421875 C175.739587,13.7578176 176.09375,14.9947844 176.09375,16.453125 C176.09375,17.7239647 175.822919,18.8203079 175.28125,19.7421875 C174.739581,20.6640671 173.994796,21.4114555 173.046875,21.984375 C172.442705,22.3489602 171.614589,22.6510405 170.5625,22.890625 C171.406254,23.1718764 172.020831,23.4531236 172.40625,23.734375 C172.666668,23.9218759 173.044268,24.3229136 173.539062,24.9375 C174.033857,25.5520864 174.364583,26.02604 174.53125,26.359375 L177.953125,33 L169.953125,33 L166.171875,26 C165.692706,25.0937455 165.265627,24.5052097 164.890625,24.234375 C164.380206,23.8802066 163.802087,23.703125 163.15625,23.703125 L162.53125,23.703125 L162.53125,33 L155.421875,33 Z M162.53125,19.375 L165.515625,19.375 C165.838543,19.375 166.463537,19.2708344 167.390625,19.0625 C167.859377,18.9687495 168.242186,18.7291686 168.539062,18.34375 C168.835939,17.9583314 168.984375,17.5156275 168.984375,17.015625 C168.984375,16.276038 168.750002,15.7083353 168.28125,15.3125 C167.812498,14.9166647 166.932298,14.71875 165.640625,14.71875 L162.53125,14.71875 L162.53125,19.375 Z M178.8125,26.625 L185.609375,26.625 L185.609375,33 L178.8125,33 L178.8125,26.625 Z M2.4375,51.09375 L12.953125,51.09375 C15.026052,51.09375 16.7005145,51.3749972 17.9765625,51.9375 C19.2526105,52.5000028 20.3072875,53.3072864 21.140625,54.359375 C21.9739625,55.4114636 22.5781231,56.6354097 22.953125,58.03125 C23.3281269,59.4270903 23.515625,60.9062422 23.515625,62.46875 C23.515625,64.9166789 23.236982,66.8150974 22.6796875,68.1640625 C22.122393,69.5130276 21.3489633,70.6432246 20.359375,71.5546875 C19.3697867,72.4661504 18.3072973,73.0729152 17.171875,73.375 C15.6197839,73.7916687 14.213548,74 12.953125,74 L2.4375,74 L2.4375,51.09375 Z M9.515625,56.28125 L9.515625,68.796875 L11.25,68.796875 C12.7291741,68.796875 13.7812469,68.6328141 14.40625,68.3046875 C15.0312531,67.9765609 15.5208316,67.4036499 15.875,66.5859375 C16.2291684,65.7682251 16.40625,64.4427175 16.40625,62.609375 C16.40625,60.1822795 16.0104206,58.5208378 15.21875,57.625 C14.4270794,56.7291622 13.1145925,56.28125 11.28125,56.28125 L9.515625,56.28125 Z M26.21875,51.09375 L45.1875,51.09375 L45.1875,55.984375 L33.3125,55.984375 L33.3125,59.625 L44.328125,59.625 L44.328125,64.296875 L33.3125,64.296875 L33.3125,68.8125 L45.53125,68.8125 L45.53125,74 L26.21875,74 L26.21875,51.09375 Z M46.078125,51.09375 L53.484375,51.09375 L58.640625,67.578125 L63.71875,51.09375 L70.90625,51.09375 L62.40625,74 L54.734375,74 L46.078125,51.09375 Z M72.21875,51.09375 L91.1875,51.09375 L91.1875,55.984375 L79.3125,55.984375 L79.3125,59.625 L90.328125,59.625 L90.328125,64.296875 L79.3125,64.296875 L79.3125,68.8125 L91.53125,68.8125 L91.53125,74 L72.21875,74 L72.21875,51.09375 Z M94.34375,51.09375 L101.421875,51.09375 L101.421875,68.359375 L112.46875,68.359375 L112.46875,74 L94.34375,74 L94.34375,51.09375 Z M113.25,62.5625 C113.25,58.822898 114.291656,55.9114687 116.375,53.828125 C118.458344,51.7447813 121.359356,50.703125 125.078125,50.703125 C128.890644,50.703125 131.828115,51.7265523 133.890625,53.7734375 C135.953135,55.8203227 136.984375,58.6874816 136.984375,62.375 C136.984375,65.0520967 136.533859,67.2473873 135.632812,68.9609375 C134.731766,70.6744877 133.429696,72.0078077 131.726562,72.9609375 C130.023429,73.9140673 127.901054,74.390625 125.359375,74.390625 C122.776029,74.390625 120.638029,73.9791708 118.945312,73.15625 C117.252596,72.3333292 115.880214,71.0312589 114.828125,69.25 C113.776036,67.4687411 113.25,65.2395967 113.25,62.5625 Z M120.328125,62.59375 C120.328125,64.9062616 120.757808,66.5677033 121.617188,67.578125 C122.476567,68.5885467 123.645826,69.09375 125.125,69.09375 C126.645841,69.09375 127.822913,68.5989633 128.65625,67.609375 C129.489587,66.6197867 129.90625,64.8437628 129.90625,62.28125 C129.90625,60.1249892 129.471359,58.5494841 128.601562,57.5546875 C127.731766,56.5598909 126.552091,56.0625 125.0625,56.0625 C123.63541,56.0625 122.489588,56.5677033 121.625,57.578125 C120.760412,58.5885467 120.328125,60.260405 120.328125,62.59375 Z M139.765625,51.09375 L151.53125,51.09375 C154.093763,51.09375 156.013014,51.7031189 157.289062,52.921875 C158.565111,54.1406311 159.203125,55.8749887 159.203125,58.125 C159.203125,60.4375116 158.507819,62.2447852 157.117188,63.546875 C155.726556,64.8489648 153.604181,65.5 150.75,65.5 L146.875,65.5 L146.875,74 L139.765625,74 L139.765625,51.09375 Z M146.875,60.859375 L148.609375,60.859375 C149.973965,60.859375 150.932289,60.6223982 151.484375,60.1484375 C152.036461,59.6744768 152.3125,59.067712 152.3125,58.328125 C152.3125,57.6093714 152.072919,57.0000025 151.59375,56.5 C151.114581,55.9999975 150.213548,55.75 148.890625,55.75 L146.875,55.75 L146.875,60.859375 Z M161.890625,51.09375 L180.859375,51.09375 L180.859375,55.984375 L168.984375,55.984375 L168.984375,59.625 L180,59.625 L180,64.296875 L168.984375,64.296875 L168.984375,68.8125 L181.203125,68.8125 L181.203125,74 L161.890625,74 L161.890625,51.09375 Z M184.109375,74 L184.109375,51.09375 L195.90625,51.09375 C198.093761,51.09375 199.765619,51.2812481 200.921875,51.65625 C202.078131,52.0312519 203.010413,52.7265574 203.71875,53.7421875 C204.427087,54.7578176 204.78125,55.9947844 204.78125,57.453125 C204.78125,58.7239647 204.510419,59.8203079 203.96875,60.7421875 C203.427081,61.6640671 202.682296,62.4114555 201.734375,62.984375 C201.130205,63.3489602 200.302089,63.6510405 199.25,63.890625 C200.093754,64.1718764 200.708331,64.4531236 201.09375,64.734375 C201.354168,64.9218759 201.731768,65.3229136 202.226562,65.9375 C202.721357,66.5520864 203.052082,67.02604 203.21875,67.359375 L206.640625,74 L198.640625,74 L194.859375,67 C194.380206,66.0937455 193.953127,65.5052097 193.578125,65.234375 C193.067706,64.8802066 192.489587,64.703125 191.84375,64.703125 L191.21875,64.703125 L191.21875,74 L184.109375,74 Z M191.21875,60.375 L194.203125,60.375 C194.526043,60.375 195.151037,60.2708344 196.078125,60.0625 C196.546877,59.9687495 196.929686,59.7291686 197.226562,59.34375 C197.523439,58.9583314 197.671875,58.5156275 197.671875,58.015625 C197.671875,57.276038 197.437502,56.7083353 196.96875,56.3125 C196.499998,55.9166647 195.619798,55.71875 194.328125,55.71875 L191.21875,55.71875 L191.21875,60.375 Z M207.5,67.625 L214.296875,67.625 L214.296875,74 L207.5,74 L207.5,67.625 Z M2.375,92.09375 L19.875,92.09375 L19.875,97.015625 L9.484375,97.015625 L9.484375,101.015625 L18.359375,101.015625 L18.359375,105.640625 L9.484375,105.640625 L9.484375,115 L2.375,115 L2.375,92.09375 Z M22.78125,115 L22.78125,92.09375 L34.578125,92.09375 C36.7656359,92.09375 38.4374942,92.2812481 39.59375,92.65625 C40.7500058,93.0312519 41.6822881,93.7265574 42.390625,94.7421875 C43.0989619,95.7578176 43.453125,96.9947844 43.453125,98.453125 C43.453125,99.7239647 43.1822944,100.820308 42.640625,101.742188 C42.0989556,102.664067 41.3541714,103.411455 40.40625,103.984375 C39.8020803,104.34896 38.9739636,104.65104 37.921875,104.890625 C38.7656292,105.171876 39.3802064,105.453124 39.765625,105.734375 C40.026043,105.921876 40.4036434,106.322914 40.8984375,106.9375 C41.3932316,107.552086 41.7239575,108.02604 41.890625,108.359375 L45.3125,115 L37.3125,115 L33.53125,108 C33.0520809,107.093745 32.6250019,106.50521 32.25,106.234375 C31.7395808,105.880207 31.1614616,105.703125 30.515625,105.703125 L29.890625,105.703125 L29.890625,115 L22.78125,115 Z M29.890625,101.375 L32.875,101.375 C33.1979183,101.375 33.822912,101.270834 34.75,101.0625 C35.2187523,100.96875 35.601561,100.729169 35.8984375,100.34375 C36.195314,99.9583314 36.34375,99.5156275 36.34375,99.015625 C36.34375,98.276038 36.1093773,97.7083353 35.640625,97.3125 C35.1718727,96.9166647 34.2916731,96.71875 33,96.71875 L29.890625,96.71875 L29.890625,101.375 Z M46.5625,92.09375 L65.53125,92.09375 L65.53125,96.984375 L53.65625,96.984375 L53.65625,100.625 L64.671875,100.625 L64.671875,105.296875 L53.65625,105.296875 L53.65625,109.8125 L65.875,109.8125 L65.875,115 L46.5625,115 L46.5625,92.09375 Z M68.671875,92.09375 L87.640625,92.09375 L87.640625,96.984375 L75.765625,96.984375 L75.765625,100.625 L86.78125,100.625 L86.78125,105.296875 L75.765625,105.296875 L75.765625,109.8125 L87.984375,109.8125 L87.984375,115 L68.671875,115 L68.671875,92.09375 Z M90.796875,92.09375 L97.875,92.09375 L97.875,109.359375 L108.921875,109.359375 L108.921875,115 L90.796875,115 L90.796875,92.09375 Z M125.234375,111.21875 L117.171875,111.21875 L116.0625,115 L108.828125,115 L117.4375,92.09375 L125.15625,92.09375 L133.765625,115 L126.359375,115 L125.234375,111.21875 Z M123.75,106.265625 L121.21875,98.03125 L118.703125,106.265625 L123.75,106.265625 Z M135.078125,92.09375 L141.6875,92.09375 L150.3125,104.765625 L150.3125,92.09375 L156.984375,92.09375 L156.984375,115 L150.3125,115 L141.734375,102.421875 L141.734375,115 L135.078125,115 L135.078125,92.09375 Z M175.9375,105.640625 L182.140625,107.515625 C181.723956,109.255217 181.067713,110.708327 180.171875,111.875 C179.276037,113.041673 178.164069,113.921872 176.835938,114.515625 C175.507806,115.109378 173.817719,115.40625 171.765625,115.40625 C169.276029,115.40625 167.242195,115.044274 165.664062,114.320312 C164.08593,113.596351 162.723964,112.322926 161.578125,110.5 C160.432286,108.677074 159.859375,106.343764 159.859375,103.5 C159.859375,99.7083144 160.867177,96.794281 162.882812,94.7578125 C164.898448,92.721344 167.749982,91.703125 171.4375,91.703125 C174.322931,91.703125 176.591138,92.2864525 178.242188,93.453125 C179.893237,94.6197975 181.119788,96.4114462 181.921875,98.828125 L175.671875,100.21875 C175.453124,99.5208298 175.22396,99.0104183 174.984375,98.6875 C174.58854,98.1458306 174.10417,97.7291681 173.53125,97.4375 C172.95833,97.1458319 172.317712,97 171.609375,97 C170.0052,97 168.776046,97.6458269 167.921875,98.9375 C167.276038,99.8958381 166.953125,101.401031 166.953125,103.453125 C166.953125,105.994804 167.338538,107.736974 168.109375,108.679688 C168.880212,109.622401 169.963535,110.09375 171.359375,110.09375 C172.713548,110.09375 173.736976,109.713545 174.429688,108.953125 C175.122399,108.192705 175.624998,107.088549 175.9375,105.640625 Z M184.5625,92.09375 L203.53125,92.09375 L203.53125,96.984375 L191.65625,96.984375 L191.65625,100.625 L202.671875,100.625 L202.671875,105.296875 L191.65625,105.296875 L191.65625,109.8125 L203.875,109.8125 L203.875,115 L184.5625,115 L184.5625,92.09375 Z M206.78125,115 L206.78125,92.09375 L218.578125,92.09375 C220.765636,92.09375 222.437494,92.2812481 223.59375,92.65625 C224.750006,93.0312519 225.682288,93.7265574 226.390625,94.7421875 C227.098962,95.7578176 227.453125,96.9947844 227.453125,98.453125 C227.453125,99.7239647 227.182294,100.820308 226.640625,101.742188 C226.098956,102.664067 225.354171,103.411455 224.40625,103.984375 C223.80208,104.34896 222.973964,104.65104 221.921875,104.890625 C222.765629,105.171876 223.380206,105.453124 223.765625,105.734375 C224.026043,105.921876 224.403643,106.322914 224.898438,106.9375 C225.393232,107.552086 225.723958,108.02604 225.890625,108.359375 L229.3125,115 L221.3125,115 L217.53125,108 C217.052081,107.093745 216.625002,106.50521 216.25,106.234375 C215.739581,105.880207 215.161462,105.703125 214.515625,105.703125 L213.890625,105.703125 L213.890625,115 L206.78125,115 Z M213.890625,101.375 L216.875,101.375 C217.197918,101.375 217.822912,101.270834 218.75,101.0625 C219.218752,100.96875 219.601561,100.729169 219.898438,100.34375 C220.195314,99.9583314 220.34375,99.5156275 220.34375,99.015625 C220.34375,98.276038 220.109377,97.7083353 219.640625,97.3125 C219.171873,96.9166647 218.291673,96.71875 217,96.71875 L213.890625,96.71875 L213.890625,101.375 Z M258.328125,103.859375 L263.296875,104.96875 C263.036457,105.885421 262.78646,106.619789 262.546875,107.171875 C262.30729,107.723961 261.968752,108.374996 261.53125,109.125 L263.921875,110.765625 C264.213543,110.953126 264.588539,111.177082 265.046875,111.4375 L261.625,115.375 C260.999997,115.041665 260.351566,114.656252 259.679688,114.21875 C259.007809,113.781248 258.406253,113.406252 257.875,113.09375 C256.770828,113.82292 255.666672,114.354165 254.5625,114.6875 C253.031242,115.145836 251.291676,115.375 249.34375,115.375 C246.291651,115.375 244.020841,114.73959 242.53125,113.46875 C241.041659,112.19791 240.296875,110.656259 240.296875,108.84375 C240.296875,107.54166 240.734371,106.309902 241.609375,105.148438 C242.484379,103.986973 243.916657,103.005212 245.90625,102.203125 C245.072912,101.192703 244.500002,100.315108 244.1875,99.5703125 C243.874998,98.8255171 243.71875,98.0677122 243.71875,97.296875 C243.71875,95.6718669 244.338535,94.3333386 245.578125,93.28125 C246.817715,92.2291614 248.697904,91.703125 251.21875,91.703125 C253.79168,91.703125 255.682286,92.20312 256.890625,93.203125 C258.098964,94.20313 258.703125,95.4010347 258.703125,96.796875 C258.703125,97.5781289 258.518231,98.3281214 258.148438,99.046875 C257.778644,99.7656286 257.333336,100.348956 256.8125,100.796875 C256.291664,101.244794 255.359382,101.911454 254.015625,102.796875 C255.130214,103.911464 256.291661,104.947912 257.5,105.90625 C257.822918,105.260413 258.098957,104.578129 258.328125,103.859375 Z M251.015625,99.84375 C251.838546,99.3958311 252.473956,98.9088568 252.921875,98.3828125 C253.369794,97.8567682 253.59375,97.3593773 253.59375,96.890625 C253.59375,96.4010392 253.406252,95.9869809 253.03125,95.6484375 C252.656248,95.3098941 252.140628,95.140625 251.484375,95.140625 C250.838538,95.140625 250.312502,95.3281231 249.90625,95.703125 C249.499998,96.0781269 249.296875,96.5208308 249.296875,97.03125 C249.296875,97.6770866 249.869786,98.6145772 251.015625,99.84375 Z M248.75,105.40625 C247.874996,106.020836 247.294272,106.546873 247.007812,106.984375 C246.721353,107.421877 246.578125,107.885414 246.578125,108.375 C246.578125,109.13542 246.906247,109.812497 247.5625,110.40625 C248.218753,111.000003 249.072911,111.296875 250.125,111.296875 C251.260422,111.296875 252.536451,110.854171 253.953125,109.96875 C252.598952,108.927078 250.864594,107.40626 248.75,105.40625 Z M17.59375,146.640625 L23.796875,148.515625 C23.3802063,150.255217 22.7239628,151.708327 21.828125,152.875 C20.9322872,154.041673 19.8203191,154.921872 18.4921875,155.515625 C17.1640559,156.109378 15.4739686,156.40625 13.421875,156.40625 C10.9322792,156.40625 8.89844539,156.044274 7.3203125,155.320312 C5.74217961,154.596351 4.38021406,153.322926 3.234375,151.5 C2.08853594,149.677074 1.515625,147.343764 1.515625,144.5 C1.515625,140.708314 2.52342742,137.794281 4.5390625,135.757812 C6.55469758,133.721344 9.40623156,132.703125 13.09375,132.703125 C15.9791811,132.703125 18.2473876,133.286452 19.8984375,134.453125 C21.5494874,135.619798 22.7760377,137.411446 23.578125,139.828125 L17.328125,141.21875 C17.1093739,140.52083 16.8802095,140.010418 16.640625,139.6875 C16.2447897,139.145831 15.7604195,138.729168 15.1875,138.4375 C14.6145805,138.145832 13.9739619,138 13.265625,138 C11.6614503,138 10.4322959,138.645827 9.578125,139.9375 C8.93228844,140.895838 8.609375,142.401031 8.609375,144.453125 C8.609375,146.994804 8.99478781,148.736974 9.765625,149.679688 C10.5364622,150.622401 11.6197847,151.09375 13.015625,151.09375 C14.3697984,151.09375 15.3932257,150.713545 16.0859375,149.953125 C16.7786493,149.192705 17.2812484,148.088549 17.59375,146.640625 Z M25.34375,144.5625 C25.34375,140.822898 26.3854062,137.911469 28.46875,135.828125 C30.5520938,133.744781 33.4531064,132.703125 37.171875,132.703125 C40.9843941,132.703125 43.9218647,133.726552 45.984375,135.773438 C48.0468853,137.820323 49.078125,140.687482 49.078125,144.375 C49.078125,147.052097 48.6276087,149.247387 47.7265625,150.960938 C46.8255163,152.674488 45.523446,154.007808 43.8203125,154.960938 C42.117179,155.914067 39.9948044,156.390625 37.453125,156.390625 C34.8697788,156.390625 32.7317793,155.979171 31.0390625,155.15625 C29.3463457,154.333329 27.9739636,153.031259 26.921875,151.25 C25.8697864,149.468741 25.34375,147.239597 25.34375,144.5625 Z M32.421875,144.59375 C32.421875,146.906262 32.8515582,148.567703 33.7109375,149.578125 C34.5703168,150.588547 35.7395759,151.09375 37.21875,151.09375 C38.7395909,151.09375 39.9166625,150.598963 40.75,149.609375 C41.5833375,148.619787 42,146.843763 42,144.28125 C42,142.124989 41.5651085,140.549484 40.6953125,139.554688 C39.8255165,138.559891 38.6458408,138.0625 37.15625,138.0625 C35.7291595,138.0625 34.5833377,138.567703 33.71875,139.578125 C32.8541623,140.588547 32.421875,142.260405 32.421875,144.59375 Z M51.921875,133.09375 L69.421875,133.09375 L69.421875,138.015625 L59.03125,138.015625 L59.03125,142.015625 L67.90625,142.015625 L67.90625,146.640625 L59.03125,146.640625 L59.03125,156 L51.921875,156 L51.921875,133.09375 Z M72.265625,133.09375 L89.765625,133.09375 L89.765625,138.015625 L79.375,138.015625 L79.375,142.015625 L88.25,142.015625 L88.25,146.640625 L79.375,146.640625 L79.375,156 L72.265625,156 L72.265625,133.09375 Z M92.5625,133.09375 L111.53125,133.09375 L111.53125,137.984375 L99.65625,137.984375 L99.65625,141.625 L110.671875,141.625 L110.671875,146.296875 L99.65625,146.296875 L99.65625,150.8125 L111.875,150.8125 L111.875,156 L92.5625,156 L92.5625,133.09375 Z M114.671875,133.09375 L133.640625,133.09375 L133.640625,137.984375 L121.765625,137.984375 L121.765625,141.625 L132.78125,141.625 L132.78125,146.296875 L121.765625,146.296875 L121.765625,150.8125 L133.984375,150.8125 L133.984375,156 L114.671875,156 L114.671875,133.09375 Z M146.453125,133.09375 L165.421875,133.09375 L165.421875,137.984375 L153.546875,137.984375 L153.546875,141.625 L164.5625,141.625 L164.5625,146.296875 L153.546875,146.296875 L153.546875,150.8125 L165.765625,150.8125 L165.765625,156 L146.453125,156 L146.453125,133.09375 Z M168.625,133.09375 L175.234375,133.09375 L183.859375,145.765625 L183.859375,133.09375 L190.53125,133.09375 L190.53125,156 L183.859375,156 L175.28125,143.421875 L175.28125,156 L168.625,156 L168.625,133.09375 Z M192.625,133.09375 L214.140625,133.09375 L214.140625,138.75 L206.921875,138.75 L206.921875,156 L199.84375,156 L199.84375,138.75 L192.625,138.75 L192.625,133.09375 Z M216.375,133.09375 L223.453125,133.09375 L223.453125,141.109375 L231.1875,141.109375 L231.1875,133.09375 L238.296875,133.09375 L238.296875,156 L231.1875,156 L231.1875,146.734375 L223.453125,146.734375 L223.453125,156 L216.375,156 L216.375,133.09375 Z M256.90625,133.09375 L263.96875,133.09375 L263.96875,146.75 C263.96875,148.104173 263.757815,149.382806 263.335938,150.585938 C262.91406,151.789069 262.252609,152.841141 261.351562,153.742188 C260.450516,154.643234 259.505213,155.27604 258.515625,155.640625 C257.140618,156.151044 255.489593,156.40625 253.5625,156.40625 C252.447911,156.40625 251.231777,156.328126 249.914062,156.171875 C248.596348,156.015624 247.494796,155.705731 246.609375,155.242188 C245.723954,154.778644 244.914066,154.119796 244.179688,153.265625 C243.445309,152.411454 242.94271,151.531255 242.671875,150.625 C242.234373,149.166659 242.015625,147.875006 242.015625,146.75 L242.015625,133.09375 L249.078125,133.09375 L249.078125,147.078125 C249.078125,148.328131 249.424476,149.304684 250.117188,150.007812 C250.809899,150.710941 251.770827,151.0625 253,151.0625 C254.218756,151.0625 255.174476,150.716149 255.867188,150.023438 C256.559899,149.330726 256.90625,148.348965 256.90625,147.078125 L256.90625,133.09375 Z M266.421875,148.421875 L273.15625,148 C273.302084,149.093755 273.598956,149.92708 274.046875,150.5 C274.776045,151.427088 275.817702,151.890625 277.171875,151.890625 C278.182297,151.890625 278.960935,151.653648 279.507812,151.179688 C280.05469,150.705727 280.328125,150.156253 280.328125,149.53125 C280.328125,148.937497 280.067711,148.406252 279.546875,147.9375 C279.026039,147.468748 277.817718,147.026044 275.921875,146.609375 C272.817693,145.911455 270.604173,144.984381 269.28125,143.828125 C267.94791,142.671869 267.28125,141.197926 267.28125,139.40625 C267.28125,138.229161 267.622392,137.117193 268.304688,136.070312 C268.986983,135.023432 270.013014,134.200524 271.382812,133.601562 C272.752611,133.002601 274.630196,132.703125 277.015625,132.703125 C279.942723,132.703125 282.174471,133.24739 283.710938,134.335938 C285.247404,135.424485 286.161457,137.156238 286.453125,139.53125 L279.78125,139.921875 C279.604166,138.89062 279.231774,138.140627 278.664062,137.671875 C278.096351,137.203123 277.312505,136.96875 276.3125,136.96875 C275.489579,136.96875 274.869794,137.143227 274.453125,137.492188 C274.036456,137.841148 273.828125,138.265623 273.828125,138.765625 C273.828125,139.13021 273.999998,139.458332 274.34375,139.75 C274.677085,140.052085 275.468744,140.333332 276.71875,140.59375 C279.812515,141.26042 282.028639,141.934892 283.367188,142.617188 C284.705736,143.299483 285.679684,144.145828 286.289062,145.15625 C286.898441,146.166672 287.203125,147.296869 287.203125,148.546875 C287.203125,150.015632 286.796879,151.369785 285.984375,152.609375 C285.171871,153.848965 284.036466,154.789059 282.578125,155.429688 C281.119784,156.070316 279.281261,156.390625 277.0625,156.390625 C273.166647,156.390625 270.468757,155.640633 268.96875,154.140625 C267.468743,152.640617 266.619793,150.734387 266.421875,148.421875 Z M290.046875,133.09375 L297.140625,133.09375 L297.140625,156 L290.046875,156 L290.046875,133.09375 Z M315.3125,152.21875 L307.25,152.21875 L306.140625,156 L298.90625,156 L307.515625,133.09375 L315.234375,133.09375 L323.84375,156 L316.4375,156 L315.3125,152.21875 Z M313.828125,147.265625 L311.296875,139.03125 L308.78125,147.265625 L313.828125,147.265625 Z M323.875,148.421875 L330.609375,148 C330.755209,149.093755 331.052081,149.92708 331.5,150.5 C332.22917,151.427088 333.270827,151.890625 334.625,151.890625 C335.635422,151.890625 336.41406,151.653648 336.960938,151.179688 C337.507815,150.705727 337.78125,150.156253 337.78125,149.53125 C337.78125,148.937497 337.520836,148.406252 337,147.9375 C336.479164,147.468748 335.270843,147.026044 333.375,146.609375 C330.270818,145.911455 328.057298,144.984381 326.734375,143.828125 C325.401035,142.671869 324.734375,141.197926 324.734375,139.40625 C324.734375,138.229161 325.075517,137.117193 325.757812,136.070312 C326.440108,135.023432 327.466139,134.200524 328.835938,133.601562 C330.205736,133.002601 332.083321,132.703125 334.46875,132.703125 C337.395848,132.703125 339.627596,133.24739 341.164062,134.335938 C342.700529,135.424485 343.614582,137.156238 343.90625,139.53125 L337.234375,139.921875 C337.057291,138.89062 336.684899,138.140627 336.117188,137.671875 C335.549476,137.203123 334.76563,136.96875 333.765625,136.96875 C332.942704,136.96875 332.322919,137.143227 331.90625,137.492188 C331.489581,137.841148 331.28125,138.265623 331.28125,138.765625 C331.28125,139.13021 331.453123,139.458332 331.796875,139.75 C332.13021,140.052085 332.921869,140.333332 334.171875,140.59375 C337.26564,141.26042 339.481764,141.934892 340.820312,142.617188 C342.158861,143.299483 343.132809,144.145828 343.742188,145.15625 C344.351566,146.166672 344.65625,147.296869 344.65625,148.546875 C344.65625,150.015632 344.250004,151.369785 343.4375,152.609375 C342.624996,153.848965 341.489591,154.789059 340.03125,155.429688 C338.572909,156.070316 336.734386,156.390625 334.515625,156.390625 C330.619772,156.390625 327.921882,155.640633 326.421875,154.140625 C324.921868,152.640617 324.072918,150.734387 323.875,148.421875 Z M345.609375,133.09375 L367.125,133.09375 L367.125,138.75 L359.90625,138.75 L359.90625,156 L352.828125,156 L352.828125,138.75 L345.609375,138.75 L345.609375,133.09375 Z M364.03125,149.625 L370.828125,149.625 L370.828125,156 L364.03125,156 L364.03125,149.625 Z" id="path-1"></path>
        <filter x="-0.5%" y="-1.4%" width="101.1%" height="102.7%" filterUnits="objectBoundingBox" id="filter-2">
            <feGaussianBlur stdDeviation="1.5" in="SourceAlpha" result="shadowBlurInner1"></feGaussianBlur>
            <feOffset dx="0" dy="1" in="shadowBlurInner1" result="shadowOffsetInner1"></feOffset>
            <feComposite in="shadowOffsetInner1" in2="SourceAlpha" operator="arithmetic" k2="-1" k3="1" result="shadowInnerInner1"></feComposite>
            <feColorMatrix values="0 0 0 0 0   0 0 0 0 0   0 0 0 0 0  0 0 0 0.296308877 0" type="matrix" in="shadowInnerInner1"></feColorMatrix>
        </filter>
    </defs>
    <g id="Landing" stroke="none" stroke-width="1" fill="none" fill-rule="evenodd">
        <g id="Group" transform="translate(-1.000000, -9.000000)">
            <g id="DESIGNER.-DEVELOPER.">
                <use fill="#4A4A4A" fill-rule="evenodd" xlink:href="#path-1"></use>
                <use fill="black" fill-opacity="1" filter="url(#filter-2)" xlink:href="#path-1"></use>
            </g>
        </g>
    </g>
</svg>