<?xml version="1.0" standalone="no"?>
<!DOCTYPE svg PUBLIC "-//W3C//DTD SVG 20010904//EN"
 "http://www.w3.org/TR/2001/REC-SVG-20010904/DTD/svg10.dtd">
<svg version="1.0" xmlns="http://www.w3.org/2000/svg"
 width="700.000000pt" height="700.000000pt" viewBox="0 0 700.000000 700.000000"
 preserveAspectRatio="xMidYMid meet">
<metadata>
Created by potrace 1.11, written by Peter Selinger 2001-2013
</metadata>
<g transform="translate(0.000000,700.000000) scale(0.100000,-0.100000)"
fill="#000000" stroke="none">
<path d="M0 3500 l0 -3500 3500 0 3500 0 0 3500 0 3500 -3500 0 -3500 0 0
-3500z m3530 1350 l0 -390 -425 0 -425 0 0 -1360 0 -1360 -470 0 -470 0 0
1360 0 1360 -430 0 -430 0 0 390 0 390 1325 0 1325 0 0 -390z m2570 10 l0
-380 -565 0 -565 0 0 -335 0 -335 520 0 520 0 0 -380 0 -380 -520 0 -520 0 0
-655 0 -655 -470 0 -470 0 0 1743 c0 959 3 1747 7 1750 3 4 469 7 1035 7
l1028 0 0 -380z"/>
</g>
</svg>
