<?xml version="1.0" standalone="no"?>
<!DOCTYPE svg PUBLIC "-//W3C//DTD SVG 20010904//EN"
 "http://www.w3.org/TR/2001/REC-SVG-20010904/DTD/svg10.dtd">
<svg version="1.0" xmlns="http://www.w3.org/2000/svg"
 width="700.000000pt" height="700.000000pt" viewBox="0 0 700.000000 700.000000"
 preserveAspectRatio="xMidYMid meet">
<metadata>
Created by potrace 1.11, written by Peter Selinger 2001-2013
</metadata>
<g transform="translate(0.000000,700.000000) scale(0.100000,-0.100000)"
fill="#000000" stroke="none">
<path d="M0 3500 l0 -3500 3500 0 3500 0 0 3500 0 3500 -3500 0 -3500 0 0
-3500z m3548 1533 l-3 -438 -482 -3 -483 -2 0 -1540 0 -1540 -535 0 -535 0 0
1540 0 1540 -482 2 -483 3 -3 438 -2 437 1505 0 1505 0 -2 -437z m2912 7 l0
-430 -645 0 -645 0 0 -375 0 -375 593 -2 592 -3 3 -427 2 -428 -595 0 -595 0
0 -745 0 -745 -530 0 -530 0 0 1980 0 1980 1175 0 1175 0 0 -430z"/>
</g>
</svg>
