<?xml version="1.0" encoding="UTF-8"?>
<svg width="293px" height="290px" viewBox="0 0 293 290" version="1.1" xmlns="http://www.w3.org/2000/svg" xmlns:xlink="http://www.w3.org/1999/xlink">
    <!-- Generator: Sketch 51.2 (57519) - http://www.bohemiancoding.com/sketch -->
    <title>css-icon</title>
    <desc>Created with Sketch.</desc>
    <defs>
        <rect id="path-1" x="31" y="29" width="241" height="240"></rect>
        <filter x="-12.2%" y="-12.3%" width="125.3%" height="125.4%" filterUnits="objectBoundingBox" id="filter-2">
            <feOffset dx="1" dy="1" in="SourceAlpha" result="shadowOffsetOuter1"></feOffset>
            <feGaussianBlur stdDeviation="10" in="shadowOffsetOuter1" result="shadowBlurOuter1"></feGaussianBlur>
            <feColorMatrix values="0 0 0 0 0   0 0 0 0 0   0 0 0 0 0  0 0 0 0.5 0" type="matrix" in="shadowBlurOuter1"></feColorMatrix>
        </filter>
    </defs>
    <g id="Page-5" stroke="none" stroke-width="1" fill="none" fill-rule="evenodd">
        <g id="css-icon">
            <g id="Rectangle-2">
                <use fill="black" fill-opacity="1" filter="url(#filter-2)" xlink:href="#path-1"></use>
                <use fill="#FFFFFF" fill-rule="evenodd" xlink:href="#path-1"></use>
            </g>
            <rect id="Rectangle-2" fill="#FFFFFF" x="0" y="0" width="270" height="270"></rect>
            <g id="Group-2" transform="translate(42.000000, 31.000000)">
                <g id="HTML">
                    <polygon id="Shape-Copy-123" fill="#11907C" fill-rule="nonzero" points="185.55329 205.655595 27.125 205.655595 27.125 0 136.044449 0 185.55329 48.9656179"></polygon>
                    <polygon id="Shape-Copy-122" fill="#37D2BA" fill-rule="nonzero" points="178.783398 54.2514567 131.75 54.2514567 131.75 7.73411965"></polygon>
                    <rect id="Rectangle-5-Copy-98" fill="#0D6254" x="0" y="30.9364786" width="106.5625" height="54.1388375" rx="4"></rect>
                    <path d="M63.9375,139.168837 L92.9545898,168.126468 L103.989258,157.114411 L85.8706055,139.168837 L103.989258,121.087311 L92.9545898,110.211205 L63.9375,139.168837 Z M150.443848,139.168837 L121.426758,110.211205 L110.39209,121.087311 L128.510742,139.168837 L110.39209,157.114411 L121.426758,168.126468 L150.443848,139.168837 Z" id="" fill="#37D2BA"></path>
                </g>
                <text id="CSS" font-family="OpenSans-Bold, Open Sans" font-size="36" font-weight="bold" fill="#37D2BA">
                    <tspan x="18.4989399" y="72">CSS</tspan>
                </text>
            </g>
        </g>
    </g>
</svg>