<?xml version="1.0" encoding="UTF-8"?>
<svg width="294px" height="148px" viewBox="0 0 294 148" version="1.1" xmlns="http://www.w3.org/2000/svg" xmlns:xlink="http://www.w3.org/1999/xlink">
    <!-- Generator: Sketch 51.2 (57519) - http://www.bohemiancoding.com/sketch -->
    <title>DESIGNER. DEVELOPER.</title>
    <desc>Created with Sketch.</desc>
    <defs>
        <path d="M2.4375,10.09375 L12.953125,10.09375 C15.026052,10.09375 16.7005145,10.3749972 17.9765625,10.9375 C19.2526105,11.5000028 20.3072875,12.3072864 21.140625,13.359375 C21.9739625,14.4114636 22.5781231,15.6354097 22.953125,17.03125 C23.3281269,18.4270903 23.515625,19.9062422 23.515625,21.46875 C23.515625,23.9166789 23.236982,25.8150974 22.6796875,27.1640625 C22.122393,28.5130276 21.3489633,29.6432246 20.359375,30.5546875 C19.3697867,31.4661504 18.3072973,32.0729152 17.171875,32.375 C15.6197839,32.7916687 14.213548,33 12.953125,33 L2.4375,33 L2.4375,10.09375 Z M9.515625,15.28125 L9.515625,27.796875 L11.25,27.796875 C12.7291741,27.796875 13.7812469,27.6328141 14.40625,27.3046875 C15.0312531,26.9765609 15.5208316,26.4036499 15.875,25.5859375 C16.2291684,24.7682251 16.40625,23.4427175 16.40625,21.609375 C16.40625,19.1822795 16.0104206,17.5208378 15.21875,16.625 C14.4270794,15.7291622 13.1145925,15.28125 11.28125,15.28125 L9.515625,15.28125 Z M26.21875,10.09375 L45.1875,10.09375 L45.1875,14.984375 L33.3125,14.984375 L33.3125,18.625 L44.328125,18.625 L44.328125,23.296875 L33.3125,23.296875 L33.3125,27.8125 L45.53125,27.8125 L45.53125,33 L26.21875,33 L26.21875,10.09375 Z M47.109375,25.421875 L53.84375,25 C53.9895841,26.0937555 54.2864561,26.9270805 54.734375,27.5 C55.4635453,28.427088 56.5052016,28.890625 57.859375,28.890625 C58.8697967,28.890625 59.6484348,28.6536482 60.1953125,28.1796875 C60.7421902,27.7057268 61.015625,27.1562531 61.015625,26.53125 C61.015625,25.937497 60.7552109,25.4062523 60.234375,24.9375 C59.7135391,24.4687477 58.5052178,24.0260437 56.609375,23.609375 C53.5051928,22.9114548 51.2916733,21.9843808 49.96875,20.828125 C48.63541,19.6718692 47.96875,18.1979256 47.96875,16.40625 C47.96875,15.2291608 48.3098924,14.1171927 48.9921875,13.0703125 C49.6744826,12.0234323 50.700514,11.2005238 52.0703125,10.6015625 C53.440111,10.0026012 55.3176964,9.703125 57.703125,9.703125 C60.630223,9.703125 62.8619715,10.2473904 64.3984375,11.3359375 C65.9349035,12.4244846 66.8489569,14.1562381 67.140625,16.53125 L60.46875,16.921875 C60.2916658,15.8906198 59.9192737,15.1406273 59.3515625,14.671875 C58.7838513,14.2031227 58.000005,13.96875 57,13.96875 C56.1770792,13.96875 55.5572937,14.1432274 55.140625,14.4921875 C54.7239563,14.8411476 54.515625,15.2656225 54.515625,15.765625 C54.515625,16.1302102 54.6874983,16.4583319 55.03125,16.75 C55.364585,17.0520848 56.1562438,17.333332 57.40625,17.59375 C60.5000155,18.26042 62.7161391,18.9348924 64.0546875,19.6171875 C65.3932359,20.2994826 66.3671845,21.1458283 66.9765625,22.15625 C67.5859405,23.1666717 67.890625,24.2968687 67.890625,25.546875 C67.890625,27.0156323 67.4843791,28.3697855 66.671875,29.609375 C65.8593709,30.8489645 64.7239656,31.7890593 63.265625,32.4296875 C61.8072844,33.0703157 59.9687611,33.390625 57.75,33.390625 C53.8541472,33.390625 51.1562575,32.6406325 49.65625,31.140625 C48.1562425,29.6406175 47.3072927,27.7343866 47.109375,25.421875 Z M70.734375,10.09375 L77.828125,10.09375 L77.828125,33 L70.734375,33 L70.734375,10.09375 Z M93.421875,24.703125 L93.421875,19.9375 L104.359375,19.9375 L104.359375,29.703125 C102.265615,31.1302155 100.414071,32.1015599 98.8046875,32.6171875 C97.1953045,33.1328151 95.2864694,33.390625 93.078125,33.390625 C90.3593614,33.390625 88.1432377,32.927088 86.4296875,32 C84.7161373,31.072912 83.3880255,29.6927175 82.4453125,27.859375 C81.5025995,26.0260325 81.03125,23.9218869 81.03125,21.546875 C81.03125,19.0468625 81.5468698,16.8724051 82.578125,15.0234375 C83.6093802,13.1744699 85.1197817,11.7708381 87.109375,10.8125 C88.6614661,10.072913 90.7499869,9.703125 93.375,9.703125 C95.9062627,9.703125 97.7994729,9.93228937 99.0546875,10.390625 C100.309902,10.8489606 101.351558,11.559891 102.179688,12.5234375 C103.007817,13.486984 103.630206,14.7083259 104.046875,16.1875 L97.21875,17.40625 C96.9374986,16.5416623 96.4609409,15.8802106 95.7890625,15.421875 C95.1171841,14.9635394 94.2604219,14.734375 93.21875,14.734375 C91.6666589,14.734375 90.4296921,15.2734321 89.5078125,16.3515625 C88.5859329,17.4296929 88.125,19.135405 88.125,21.46875 C88.125,23.9479291 88.5911412,25.7187447 89.5234375,26.78125 C90.4557338,27.8437553 91.7552,28.375 93.421875,28.375 C94.2135456,28.375 94.9687464,28.2604178 95.6875,28.03125 C96.4062536,27.8020822 97.229162,27.4114611 98.15625,26.859375 L98.15625,24.703125 L93.421875,24.703125 Z M107.609375,10.09375 L114.21875,10.09375 L122.84375,22.765625 L122.84375,10.09375 L129.515625,10.09375 L129.515625,33 L122.84375,33 L114.265625,20.421875 L114.265625,33 L107.609375,33 L107.609375,10.09375 Z M133.203125,10.09375 L152.171875,10.09375 L152.171875,14.984375 L140.296875,14.984375 L140.296875,18.625 L151.3125,18.625 L151.3125,23.296875 L140.296875,23.296875 L140.296875,27.8125 L152.515625,27.8125 L152.515625,33 L133.203125,33 L133.203125,10.09375 Z M155.421875,33 L155.421875,10.09375 L167.21875,10.09375 C169.406261,10.09375 171.078119,10.2812481 172.234375,10.65625 C173.390631,11.0312519 174.322913,11.7265574 175.03125,12.7421875 C175.739587,13.7578176 176.09375,14.9947844 176.09375,16.453125 C176.09375,17.7239647 175.822919,18.8203079 175.28125,19.7421875 C174.739581,20.6640671 173.994796,21.4114555 173.046875,21.984375 C172.442705,22.3489602 171.614589,22.6510405 170.5625,22.890625 C171.406254,23.1718764 172.020831,23.4531236 172.40625,23.734375 C172.666668,23.9218759 173.044268,24.3229136 173.539062,24.9375 C174.033857,25.5520864 174.364583,26.02604 174.53125,26.359375 L177.953125,33 L169.953125,33 L166.171875,26 C165.692706,25.0937455 165.265627,24.5052097 164.890625,24.234375 C164.380206,23.8802066 163.802087,23.703125 163.15625,23.703125 L162.53125,23.703125 L162.53125,33 L155.421875,33 Z M162.53125,19.375 L165.515625,19.375 C165.838543,19.375 166.463537,19.2708344 167.390625,19.0625 C167.859377,18.9687495 168.242186,18.7291686 168.539062,18.34375 C168.835939,17.9583314 168.984375,17.5156275 168.984375,17.015625 C168.984375,16.276038 168.750002,15.7083353 168.28125,15.3125 C167.812498,14.9166647 166.932298,14.71875 165.640625,14.71875 L162.53125,14.71875 L162.53125,19.375 Z M178.8125,26.625 L185.609375,26.625 L185.609375,33 L178.8125,33 L178.8125,26.625 Z M2.4375,51.09375 L12.953125,51.09375 C15.026052,51.09375 16.7005145,51.3749972 17.9765625,51.9375 C19.2526105,52.5000028 20.3072875,53.3072864 21.140625,54.359375 C21.9739625,55.4114636 22.5781231,56.6354097 22.953125,58.03125 C23.3281269,59.4270903 23.515625,60.9062422 23.515625,62.46875 C23.515625,64.9166789 23.236982,66.8150974 22.6796875,68.1640625 C22.122393,69.5130276 21.3489633,70.6432246 20.359375,71.5546875 C19.3697867,72.4661504 18.3072973,73.0729152 17.171875,73.375 C15.6197839,73.7916687 14.213548,74 12.953125,74 L2.4375,74 L2.4375,51.09375 Z M9.515625,56.28125 L9.515625,68.796875 L11.25,68.796875 C12.7291741,68.796875 13.7812469,68.6328141 14.40625,68.3046875 C15.0312531,67.9765609 15.5208316,67.4036499 15.875,66.5859375 C16.2291684,65.7682251 16.40625,64.4427175 16.40625,62.609375 C16.40625,60.1822795 16.0104206,58.5208378 15.21875,57.625 C14.4270794,56.7291622 13.1145925,56.28125 11.28125,56.28125 L9.515625,56.28125 Z M26.21875,51.09375 L45.1875,51.09375 L45.1875,55.984375 L33.3125,55.984375 L33.3125,59.625 L44.328125,59.625 L44.328125,64.296875 L33.3125,64.296875 L33.3125,68.8125 L45.53125,68.8125 L45.53125,74 L26.21875,74 L26.21875,51.09375 Z M46.078125,51.09375 L53.484375,51.09375 L58.640625,67.578125 L63.71875,51.09375 L70.90625,51.09375 L62.40625,74 L54.734375,74 L46.078125,51.09375 Z M72.21875,51.09375 L91.1875,51.09375 L91.1875,55.984375 L79.3125,55.984375 L79.3125,59.625 L90.328125,59.625 L90.328125,64.296875 L79.3125,64.296875 L79.3125,68.8125 L91.53125,68.8125 L91.53125,74 L72.21875,74 L72.21875,51.09375 Z M94.34375,51.09375 L101.421875,51.09375 L101.421875,68.359375 L112.46875,68.359375 L112.46875,74 L94.34375,74 L94.34375,51.09375 Z M113.25,62.5625 C113.25,58.822898 114.291656,55.9114687 116.375,53.828125 C118.458344,51.7447813 121.359356,50.703125 125.078125,50.703125 C128.890644,50.703125 131.828115,51.7265523 133.890625,53.7734375 C135.953135,55.8203227 136.984375,58.6874816 136.984375,62.375 C136.984375,65.0520967 136.533859,67.2473873 135.632812,68.9609375 C134.731766,70.6744877 133.429696,72.0078077 131.726562,72.9609375 C130.023429,73.9140673 127.901054,74.390625 125.359375,74.390625 C122.776029,74.390625 120.638029,73.9791708 118.945312,73.15625 C117.252596,72.3333292 115.880214,71.0312589 114.828125,69.25 C113.776036,67.4687411 113.25,65.2395967 113.25,62.5625 Z M120.328125,62.59375 C120.328125,64.9062616 120.757808,66.5677033 121.617188,67.578125 C122.476567,68.5885467 123.645826,69.09375 125.125,69.09375 C126.645841,69.09375 127.822913,68.5989633 128.65625,67.609375 C129.489587,66.6197867 129.90625,64.8437628 129.90625,62.28125 C129.90625,60.1249892 129.471359,58.5494841 128.601562,57.5546875 C127.731766,56.5598909 126.552091,56.0625 125.0625,56.0625 C123.63541,56.0625 122.489588,56.5677033 121.625,57.578125 C120.760412,58.5885467 120.328125,60.260405 120.328125,62.59375 Z M139.765625,51.09375 L151.53125,51.09375 C154.093763,51.09375 156.013014,51.7031189 157.289062,52.921875 C158.565111,54.1406311 159.203125,55.8749887 159.203125,58.125 C159.203125,60.4375116 158.507819,62.2447852 157.117188,63.546875 C155.726556,64.8489648 153.604181,65.5 150.75,65.5 L146.875,65.5 L146.875,74 L139.765625,74 L139.765625,51.09375 Z M146.875,60.859375 L148.609375,60.859375 C149.973965,60.859375 150.932289,60.6223982 151.484375,60.1484375 C152.036461,59.6744768 152.3125,59.067712 152.3125,58.328125 C152.3125,57.6093714 152.072919,57.0000025 151.59375,56.5 C151.114581,55.9999975 150.213548,55.75 148.890625,55.75 L146.875,55.75 L146.875,60.859375 Z M161.890625,51.09375 L180.859375,51.09375 L180.859375,55.984375 L168.984375,55.984375 L168.984375,59.625 L180,59.625 L180,64.296875 L168.984375,64.296875 L168.984375,68.8125 L181.203125,68.8125 L181.203125,74 L161.890625,74 L161.890625,51.09375 Z M184.109375,74 L184.109375,51.09375 L195.90625,51.09375 C198.093761,51.09375 199.765619,51.2812481 200.921875,51.65625 C202.078131,52.0312519 203.010413,52.7265574 203.71875,53.7421875 C204.427087,54.7578176 204.78125,55.9947844 204.78125,57.453125 C204.78125,58.7239647 204.510419,59.8203079 203.96875,60.7421875 C203.427081,61.6640671 202.682296,62.4114555 201.734375,62.984375 C201.130205,63.3489602 200.302089,63.6510405 199.25,63.890625 C200.093754,64.1718764 200.708331,64.4531236 201.09375,64.734375 C201.354168,64.9218759 201.731768,65.3229136 202.226562,65.9375 C202.721357,66.5520864 203.052082,67.02604 203.21875,67.359375 L206.640625,74 L198.640625,74 L194.859375,67 C194.380206,66.0937455 193.953127,65.5052097 193.578125,65.234375 C193.067706,64.8802066 192.489587,64.703125 191.84375,64.703125 L191.21875,64.703125 L191.21875,74 L184.109375,74 Z M191.21875,60.375 L194.203125,60.375 C194.526043,60.375 195.151037,60.2708344 196.078125,60.0625 C196.546877,59.9687495 196.929686,59.7291686 197.226562,59.34375 C197.523439,58.9583314 197.671875,58.5156275 197.671875,58.015625 C197.671875,57.276038 197.437502,56.7083353 196.96875,56.3125 C196.499998,55.9166647 195.619798,55.71875 194.328125,55.71875 L191.21875,55.71875 L191.21875,60.375 Z M207.5,67.625 L214.296875,67.625 L214.296875,74 L207.5,74 L207.5,67.625 Z M2.375,92.09375 L19.875,92.09375 L19.875,97.015625 L9.484375,97.015625 L9.484375,101.015625 L18.359375,101.015625 L18.359375,105.640625 L9.484375,105.640625 L9.484375,115 L2.375,115 L2.375,92.09375 Z M22.78125,115 L22.78125,92.09375 L34.578125,92.09375 C36.7656359,92.09375 38.4374942,92.2812481 39.59375,92.65625 C40.7500058,93.0312519 41.6822881,93.7265574 42.390625,94.7421875 C43.0989619,95.7578176 43.453125,96.9947844 43.453125,98.453125 C43.453125,99.7239647 43.1822944,100.820308 42.640625,101.742188 C42.0989556,102.664067 41.3541714,103.411455 40.40625,103.984375 C39.8020803,104.34896 38.9739636,104.65104 37.921875,104.890625 C38.7656292,105.171876 39.3802064,105.453124 39.765625,105.734375 C40.026043,105.921876 40.4036434,106.322914 40.8984375,106.9375 C41.3932316,107.552086 41.7239575,108.02604 41.890625,108.359375 L45.3125,115 L37.3125,115 L33.53125,108 C33.0520809,107.093745 32.6250019,106.50521 32.25,106.234375 C31.7395808,105.880207 31.1614616,105.703125 30.515625,105.703125 L29.890625,105.703125 L29.890625,115 L22.78125,115 Z M29.890625,101.375 L32.875,101.375 C33.1979183,101.375 33.822912,101.270834 34.75,101.0625 C35.2187523,100.96875 35.601561,100.729169 35.8984375,100.34375 C36.195314,99.9583314 36.34375,99.5156275 36.34375,99.015625 C36.34375,98.276038 36.1093773,97.7083353 35.640625,97.3125 C35.1718727,96.9166647 34.2916731,96.71875 33,96.71875 L29.890625,96.71875 L29.890625,101.375 Z M46.5625,92.09375 L65.53125,92.09375 L65.53125,96.984375 L53.65625,96.984375 L53.65625,100.625 L64.671875,100.625 L64.671875,105.296875 L53.65625,105.296875 L53.65625,109.8125 L65.875,109.8125 L65.875,115 L46.5625,115 L46.5625,92.09375 Z M68.671875,92.09375 L87.640625,92.09375 L87.640625,96.984375 L75.765625,96.984375 L75.765625,100.625 L86.78125,100.625 L86.78125,105.296875 L75.765625,105.296875 L75.765625,109.8125 L87.984375,109.8125 L87.984375,115 L68.671875,115 L68.671875,92.09375 Z M90.796875,92.09375 L97.875,92.09375 L97.875,109.359375 L108.921875,109.359375 L108.921875,115 L90.796875,115 L90.796875,92.09375 Z M125.234375,111.21875 L117.171875,111.21875 L116.0625,115 L108.828125,115 L117.4375,92.09375 L125.15625,92.09375 L133.765625,115 L126.359375,115 L125.234375,111.21875 Z M123.75,106.265625 L121.21875,98.03125 L118.703125,106.265625 L123.75,106.265625 Z M135.078125,92.09375 L141.6875,92.09375 L150.3125,104.765625 L150.3125,92.09375 L156.984375,92.09375 L156.984375,115 L150.3125,115 L141.734375,102.421875 L141.734375,115 L135.078125,115 L135.078125,92.09375 Z M175.9375,105.640625 L182.140625,107.515625 C181.723956,109.255217 181.067713,110.708327 180.171875,111.875 C179.276037,113.041673 178.164069,113.921872 176.835938,114.515625 C175.507806,115.109378 173.817719,115.40625 171.765625,115.40625 C169.276029,115.40625 167.242195,115.044274 165.664062,114.320312 C164.08593,113.596351 162.723964,112.322926 161.578125,110.5 C160.432286,108.677074 159.859375,106.343764 159.859375,103.5 C159.859375,99.7083144 160.867177,96.794281 162.882812,94.7578125 C164.898448,92.721344 167.749982,91.703125 171.4375,91.703125 C174.322931,91.703125 176.591138,92.2864525 178.242188,93.453125 C179.893237,94.6197975 181.119788,96.4114462 181.921875,98.828125 L175.671875,100.21875 C175.453124,99.5208298 175.22396,99.0104183 174.984375,98.6875 C174.58854,98.1458306 174.10417,97.7291681 173.53125,97.4375 C172.95833,97.1458319 172.317712,97 171.609375,97 C170.0052,97 168.776046,97.6458269 167.921875,98.9375 C167.276038,99.8958381 166.953125,101.401031 166.953125,103.453125 C166.953125,105.994804 167.338538,107.736974 168.109375,108.679688 C168.880212,109.622401 169.963535,110.09375 171.359375,110.09375 C172.713548,110.09375 173.736976,109.713545 174.429688,108.953125 C175.122399,108.192705 175.624998,107.088549 175.9375,105.640625 Z M184.5625,92.09375 L203.53125,92.09375 L203.53125,96.984375 L191.65625,96.984375 L191.65625,100.625 L202.671875,100.625 L202.671875,105.296875 L191.65625,105.296875 L191.65625,109.8125 L203.875,109.8125 L203.875,115 L184.5625,115 L184.5625,92.09375 Z M206.78125,115 L206.78125,92.09375 L218.578125,92.09375 C220.765636,92.09375 222.437494,92.2812481 223.59375,92.65625 C224.750006,93.0312519 225.682288,93.7265574 226.390625,94.7421875 C227.098962,95.7578176 227.453125,96.9947844 227.453125,98.453125 C227.453125,99.7239647 227.182294,100.820308 226.640625,101.742188 C226.098956,102.664067 225.354171,103.411455 224.40625,103.984375 C223.80208,104.34896 222.973964,104.65104 221.921875,104.890625 C222.765629,105.171876 223.380206,105.453124 223.765625,105.734375 C224.026043,105.921876 224.403643,106.322914 224.898438,106.9375 C225.393232,107.552086 225.723958,108.02604 225.890625,108.359375 L229.3125,115 L221.3125,115 L217.53125,108 C217.052081,107.093745 216.625002,106.50521 216.25,106.234375 C215.739581,105.880207 215.161462,105.703125 214.515625,105.703125 L213.890625,105.703125 L213.890625,115 L206.78125,115 Z M213.890625,101.375 L216.875,101.375 C217.197918,101.375 217.822912,101.270834 218.75,101.0625 C219.218752,100.96875 219.601561,100.729169 219.898438,100.34375 C220.195314,99.9583314 220.34375,99.5156275 220.34375,99.015625 C220.34375,98.276038 220.109377,97.7083353 219.640625,97.3125 C219.171873,96.9166647 218.291673,96.71875 217,96.71875 L213.890625,96.71875 L213.890625,101.375 Z M258.328125,103.859375 L263.296875,104.96875 C263.036457,105.885421 262.78646,106.619789 262.546875,107.171875 C262.30729,107.723961 261.968752,108.374996 261.53125,109.125 L263.921875,110.765625 C264.213543,110.953126 264.588539,111.177082 265.046875,111.4375 L261.625,115.375 C260.999997,115.041665 260.351566,114.656252 259.679688,114.21875 C259.007809,113.781248 258.406253,113.406252 257.875,113.09375 C256.770828,113.82292 255.666672,114.354165 254.5625,114.6875 C253.031242,115.145836 251.291676,115.375 249.34375,115.375 C246.291651,115.375 244.020841,114.73959 242.53125,113.46875 C241.041659,112.19791 240.296875,110.656259 240.296875,108.84375 C240.296875,107.54166 240.734371,106.309902 241.609375,105.148438 C242.484379,103.986973 243.916657,103.005212 245.90625,102.203125 C245.072912,101.192703 244.500002,100.315108 244.1875,99.5703125 C243.874998,98.8255171 243.71875,98.0677122 243.71875,97.296875 C243.71875,95.6718669 244.338535,94.3333386 245.578125,93.28125 C246.817715,92.2291614 248.697904,91.703125 251.21875,91.703125 C253.79168,91.703125 255.682286,92.20312 256.890625,93.203125 C258.098964,94.20313 258.703125,95.4010347 258.703125,96.796875 C258.703125,97.5781289 258.518231,98.3281214 258.148438,99.046875 C257.778644,99.7656286 257.333336,100.348956 256.8125,100.796875 C256.291664,101.244794 255.359382,101.911454 254.015625,102.796875 C255.130214,103.911464 256.291661,104.947912 257.5,105.90625 C257.822918,105.260413 258.098957,104.578129 258.328125,103.859375 Z M251.015625,99.84375 C251.838546,99.3958311 252.473956,98.9088568 252.921875,98.3828125 C253.369794,97.8567682 253.59375,97.3593773 253.59375,96.890625 C253.59375,96.4010392 253.406252,95.9869809 253.03125,95.6484375 C252.656248,95.3098941 252.140628,95.140625 251.484375,95.140625 C250.838538,95.140625 250.312502,95.3281231 249.90625,95.703125 C249.499998,96.0781269 249.296875,96.5208308 249.296875,97.03125 C249.296875,97.6770866 249.869786,98.6145772 251.015625,99.84375 Z M248.75,105.40625 C247.874996,106.020836 247.294272,106.546873 247.007812,106.984375 C246.721353,107.421877 246.578125,107.885414 246.578125,108.375 C246.578125,109.13542 246.906247,109.812497 247.5625,110.40625 C248.218753,111.000003 249.072911,111.296875 250.125,111.296875 C251.260422,111.296875 252.536451,110.854171 253.953125,109.96875 C252.598952,108.927078 250.864594,107.40626 248.75,105.40625 Z M2.3125,133.09375 L14.078125,133.09375 C16.6406378,133.09375 18.5598895,133.703119 19.8359375,134.921875 C21.1119855,136.140631 21.75,137.874989 21.75,140.125 C21.75,142.437512 21.0546945,144.244785 19.6640625,145.546875 C18.2734305,146.848965 16.1510559,147.5 13.296875,147.5 L9.421875,147.5 L9.421875,156 L2.3125,156 L2.3125,133.09375 Z M9.421875,142.859375 L11.15625,142.859375 C12.5208402,142.859375 13.4791639,142.622398 14.03125,142.148438 C14.5833361,141.674477 14.859375,141.067712 14.859375,140.328125 C14.859375,139.609371 14.6197941,139.000002 14.140625,138.5 C13.6614559,137.999998 12.7604233,137.75 11.4375,137.75 L9.421875,137.75 L9.421875,142.859375 Z M24.484375,133.09375 L31.5625,133.09375 L31.5625,141.109375 L39.296875,141.109375 L39.296875,133.09375 L46.40625,133.09375 L46.40625,156 L39.296875,156 L39.296875,146.734375 L31.5625,146.734375 L31.5625,156 L24.484375,156 L24.484375,133.09375 Z M49.21875,144.5625 C49.21875,140.822898 50.2604063,137.911469 52.34375,135.828125 C54.4270937,133.744781 57.3281064,132.703125 61.046875,132.703125 C64.8593941,132.703125 67.7968647,133.726552 69.859375,135.773438 C71.9218853,137.820323 72.953125,140.687482 72.953125,144.375 C72.953125,147.052097 72.5026087,149.247387 71.6015625,150.960938 C70.7005163,152.674488 69.398446,154.007808 67.6953125,154.960938 C65.992179,155.914067 63.8698044,156.390625 61.328125,156.390625 C58.7447787,156.390625 56.6067793,155.979171 54.9140625,155.15625 C53.2213457,154.333329 51.8489636,153.031259 50.796875,151.25 C49.7447864,149.468741 49.21875,147.239597 49.21875,144.5625 Z M56.296875,144.59375 C56.296875,146.906262 56.7265582,148.567703 57.5859375,149.578125 C58.4453168,150.588547 59.6145759,151.09375 61.09375,151.09375 C62.6145909,151.09375 63.7916625,150.598963 64.625,149.609375 C65.4583375,148.619787 65.875,146.843763 65.875,144.28125 C65.875,142.124989 65.4401085,140.549484 64.5703125,139.554688 C63.7005165,138.559891 62.5208408,138.0625 61.03125,138.0625 C59.6041595,138.0625 58.4583377,138.567703 57.59375,139.578125 C56.7291623,140.588547 56.296875,142.260405 56.296875,144.59375 Z M73.328125,133.09375 L94.84375,133.09375 L94.84375,138.75 L87.625,138.75 L87.625,156 L80.546875,156 L80.546875,138.75 L73.328125,138.75 L73.328125,133.09375 Z M95.0625,144.5625 C95.0625,140.822898 96.1041562,137.911469 98.1875,135.828125 C100.270844,133.744781 103.171856,132.703125 106.890625,132.703125 C110.703144,132.703125 113.640615,133.726552 115.703125,135.773438 C117.765635,137.820323 118.796875,140.687482 118.796875,144.375 C118.796875,147.052097 118.346359,149.247387 117.445312,150.960938 C116.544266,152.674488 115.242196,154.007808 113.539062,154.960938 C111.835929,155.914067 109.713554,156.390625 107.171875,156.390625 C104.588529,156.390625 102.450529,155.979171 100.757812,155.15625 C99.0650957,154.333329 97.6927136,153.031259 96.640625,151.25 C95.5885364,149.468741 95.0625,147.239597 95.0625,144.5625 Z M102.140625,144.59375 C102.140625,146.906262 102.570308,148.567703 103.429688,149.578125 C104.289067,150.588547 105.458326,151.09375 106.9375,151.09375 C108.458341,151.09375 109.635413,150.598963 110.46875,149.609375 C111.302087,148.619787 111.71875,146.843763 111.71875,144.28125 C111.71875,142.124989 111.283859,140.549484 110.414062,139.554688 C109.544266,138.559891 108.364591,138.0625 106.875,138.0625 C105.44791,138.0625 104.302088,138.567703 103.4375,139.578125 C102.572912,140.588547 102.140625,142.260405 102.140625,144.59375 Z M133.125,147.703125 L133.125,142.9375 L144.0625,142.9375 L144.0625,152.703125 C141.96874,154.130215 140.117196,155.10156 138.507812,155.617188 C136.898429,156.132815 134.989594,156.390625 132.78125,156.390625 C130.062486,156.390625 127.846363,155.927088 126.132812,155 C124.419262,154.072912 123.091151,152.692718 122.148438,150.859375 C121.205724,149.026032 120.734375,146.921887 120.734375,144.546875 C120.734375,142.046863 121.249995,139.872405 122.28125,138.023438 C123.312505,136.17447 124.822907,134.770838 126.8125,133.8125 C128.364591,133.072913 130.453112,132.703125 133.078125,132.703125 C135.609388,132.703125 137.502598,132.932289 138.757812,133.390625 C140.013027,133.848961 141.054683,134.559891 141.882812,135.523438 C142.710942,136.486984 143.333331,137.708326 143.75,139.1875 L136.921875,140.40625 C136.640624,139.541662 136.164066,138.880211 135.492188,138.421875 C134.820309,137.963539 133.963547,137.734375 132.921875,137.734375 C131.369784,137.734375 130.132817,138.273432 129.210938,139.351562 C128.289058,140.429693 127.828125,142.135405 127.828125,144.46875 C127.828125,146.947929 128.294266,148.718745 129.226562,149.78125 C130.158859,150.843755 131.458325,151.375 133.125,151.375 C133.916671,151.375 134.671871,151.260418 135.390625,151.03125 C136.109379,150.802082 136.932287,150.411461 137.859375,149.859375 L137.859375,147.703125 L133.125,147.703125 Z M147.359375,156 L147.359375,133.09375 L159.15625,133.09375 C161.343761,133.09375 163.015619,133.281248 164.171875,133.65625 C165.328131,134.031252 166.260413,134.726557 166.96875,135.742188 C167.677087,136.757818 168.03125,137.994784 168.03125,139.453125 C168.03125,140.723965 167.760419,141.820308 167.21875,142.742188 C166.677081,143.664067 165.932296,144.411455 164.984375,144.984375 C164.380205,145.34896 163.552089,145.65104 162.5,145.890625 C163.343754,146.171876 163.958331,146.453124 164.34375,146.734375 C164.604168,146.921876 164.981768,147.322914 165.476562,147.9375 C165.971357,148.552086 166.302083,149.02604 166.46875,149.359375 L169.890625,156 L161.890625,156 L158.109375,149 C157.630206,148.093745 157.203127,147.50521 156.828125,147.234375 C156.317706,146.880207 155.739587,146.703125 155.09375,146.703125 L154.46875,146.703125 L154.46875,156 L147.359375,156 Z M154.46875,142.375 L157.453125,142.375 C157.776043,142.375 158.401037,142.270834 159.328125,142.0625 C159.796877,141.96875 160.179686,141.729169 160.476562,141.34375 C160.773439,140.958331 160.921875,140.515627 160.921875,140.015625 C160.921875,139.276038 160.687502,138.708335 160.21875,138.3125 C159.749998,137.916665 158.869798,137.71875 157.578125,137.71875 L154.46875,137.71875 L154.46875,142.375 Z M185.25,152.21875 L177.1875,152.21875 L176.078125,156 L168.84375,156 L177.453125,133.09375 L185.171875,133.09375 L193.78125,156 L186.375,156 L185.25,152.21875 Z M183.765625,147.265625 L181.234375,139.03125 L178.71875,147.265625 L183.765625,147.265625 Z M195.015625,133.09375 L206.78125,133.09375 C209.343763,133.09375 211.263014,133.703119 212.539062,134.921875 C213.815111,136.140631 214.453125,137.874989 214.453125,140.125 C214.453125,142.437512 213.757819,144.244785 212.367188,145.546875 C210.976556,146.848965 208.854181,147.5 206,147.5 L202.125,147.5 L202.125,156 L195.015625,156 L195.015625,133.09375 Z M202.125,142.859375 L203.859375,142.859375 C205.223965,142.859375 206.182289,142.622398 206.734375,142.148438 C207.286461,141.674477 207.5625,141.067712 207.5625,140.328125 C207.5625,139.609371 207.322919,139.000002 206.84375,138.5 C206.364581,137.999998 205.463548,137.75 204.140625,137.75 L202.125,137.75 L202.125,142.859375 Z M217.1875,133.09375 L224.265625,133.09375 L224.265625,141.109375 L232,141.109375 L232,133.09375 L239.109375,133.09375 L239.109375,156 L232,156 L232,146.734375 L224.265625,146.734375 L224.265625,156 L217.1875,156 L217.1875,133.09375 Z M242.796875,133.09375 L261.765625,133.09375 L261.765625,137.984375 L249.890625,137.984375 L249.890625,141.625 L260.90625,141.625 L260.90625,146.296875 L249.890625,146.296875 L249.890625,150.8125 L262.109375,150.8125 L262.109375,156 L242.796875,156 L242.796875,133.09375 Z M265.015625,156 L265.015625,133.09375 L276.8125,133.09375 C279.000011,133.09375 280.671869,133.281248 281.828125,133.65625 C282.984381,134.031252 283.916663,134.726557 284.625,135.742188 C285.333337,136.757818 285.6875,137.994784 285.6875,139.453125 C285.6875,140.723965 285.416669,141.820308 284.875,142.742188 C284.333331,143.664067 283.588546,144.411455 282.640625,144.984375 C282.036455,145.34896 281.208339,145.65104 280.15625,145.890625 C281.000004,146.171876 281.614581,146.453124 282,146.734375 C282.260418,146.921876 282.638018,147.322914 283.132812,147.9375 C283.627607,148.552086 283.958332,149.02604 284.125,149.359375 L287.546875,156 L279.546875,156 L275.765625,149 C275.286456,148.093745 274.859377,147.50521 274.484375,147.234375 C273.973956,146.880207 273.395837,146.703125 272.75,146.703125 L272.125,146.703125 L272.125,156 L265.015625,156 Z M272.125,142.375 L275.109375,142.375 C275.432293,142.375 276.057287,142.270834 276.984375,142.0625 C277.453127,141.96875 277.835936,141.729169 278.132812,141.34375 C278.429689,140.958331 278.578125,140.515627 278.578125,140.015625 C278.578125,139.276038 278.343752,138.708335 277.875,138.3125 C277.406248,137.916665 276.526048,137.71875 275.234375,137.71875 L272.125,137.71875 L272.125,142.375 Z M288.40625,149.625 L295.203125,149.625 L295.203125,156 L288.40625,156 L288.40625,149.625 Z" id="path-1"></path>
        <filter x="-0.7%" y="-1.4%" width="101.4%" height="102.7%" filterUnits="objectBoundingBox" id="filter-2">
            <feGaussianBlur stdDeviation="1.5" in="SourceAlpha" result="shadowBlurInner1"></feGaussianBlur>
            <feOffset dx="0" dy="1" in="shadowBlurInner1" result="shadowOffsetInner1"></feOffset>
            <feComposite in="shadowOffsetInner1" in2="SourceAlpha" operator="arithmetic" k2="-1" k3="1" result="shadowInnerInner1"></feComposite>
            <feColorMatrix values="0 0 0 0 0   0 0 0 0 0   0 0 0 0 0  0 0 0 0.296308877 0" type="matrix" in="shadowInnerInner1"></feColorMatrix>
        </filter>
    </defs>
    <g id="Landing" stroke="none" stroke-width="1" fill="none" fill-rule="evenodd">
        <g id="Group" transform="translate(-2.000000, -9.000000)">
            <g id="DESIGNER.-DEVELOPER.">
                <use fill="#4A4A4A" fill-rule="evenodd" xlink:href="#path-1"></use>
                <use fill="black" fill-opacity="1" filter="url(#filter-2)" xlink:href="#path-1"></use>
            </g>
        </g>
    </g>
</svg>