<?xml version="1.0" encoding="UTF-8"?>
<svg width="24px" height="25px" viewBox="0 0 24 25" version="1.1" xmlns="http://www.w3.org/2000/svg" xmlns:xlink="http://www.w3.org/1999/xlink">
    <!-- Generator: Sketch 51.2 (57519) - http://www.bohemiancoding.com/sketch -->
    <title>Facebook-black</title>
    <desc>Created with Sketch.</desc>
    <defs></defs>
    <g id="Icons" stroke="none" stroke-width="1" fill="none" fill-rule="evenodd" fill-opacity="0.495183">
        <path d="M12.8191776,24.3403931 L1.32461576,24.3403931 C0.592836328,24.3403931 0,23.7471889 0,23.0156945 L0,1.66499858 C0,0.933317954 0.592929454,0.340393102 1.32461576,0.340393102 L22.6754774,0.340393102 C23.4069774,0.340393102 24,0.933317954 24,1.66499858 L24,23.0156945 C24,23.747282 23.4068843,24.3403931 22.6754774,24.3403931 L16.5596526,24.3403931 L16.5596526,15.0462704 L19.6792606,15.0462704 L20.1463776,11.4241859 L16.5596526,11.4241859 L16.5596526,9.1117138 C16.5596526,8.06303676 16.8508558,7.34839794 18.3546448,7.34839794 L20.2726557,7.34755982 L20.2726557,4.10793837 C19.940943,4.06379727 18.8023918,3.96517824 17.477776,3.96517824 C14.7124171,3.96517824 12.8191776,5.65315623 12.8191776,8.75299753 L12.8191776,11.4241859 L9.6915609,11.4241859 L9.6915609,15.0462704 L12.8191776,15.0462704 L12.8191776,24.3403931 L12.8191776,24.3403931 Z" id="Facebook" fill="#000000"></path>
    </g>
</svg>