<?xml version="1.0" encoding="UTF-8"?>
<svg width="25px" height="24px" viewBox="0 0 25 24" version="1.1" xmlns="http://www.w3.org/2000/svg" xmlns:xlink="http://www.w3.org/1999/xlink">
    <!-- Generator: Sketch 51.2 (57519) - http://www.bohemiancoding.com/sketch -->
    <title>Facebook-color</title>
    <desc>Created with Sketch.</desc>
    <defs></defs>
    <g id="Icons" stroke="none" stroke-width="1" fill="none" fill-rule="evenodd">
        <path d="M13.2657038,24 L1.77114193,24 C1.0393625,24 0.446526171,23.4067958 0.446526171,22.6753014 L0.446526171,1.32460548 C0.446526171,0.592924852 1.03945562,0 1.77114193,0 L23.1220035,0 C23.8535036,0 24.4465262,0.592924852 24.4465262,1.32460548 L24.4465262,22.6753014 C24.4465262,23.4068889 23.8534105,24 23.1220035,24 L17.0061788,24 L17.0061788,14.7058773 L20.1257868,14.7058773 L20.5929038,11.0837928 L17.0061788,11.0837928 L17.0061788,8.7713207 C17.0061788,7.72264365 17.297382,7.00800484 18.801171,7.00800484 L20.7191818,7.00716672 L20.7191818,3.76754527 C20.3874691,3.72340417 19.2489179,3.62478513 17.9243022,3.62478513 C15.1589433,3.62478513 13.2657038,5.31276313 13.2657038,8.41260443 L13.2657038,11.0837928 L10.1380871,11.0837928 L10.1380871,14.7058773 L13.2657038,14.7058773 L13.2657038,24 L13.2657038,24 Z" id="Facebook" fill="#4460A0"></path>
    </g>
</svg>