<?xml version="1.0" encoding="UTF-8"?>
<svg width="26px" height="26px" viewBox="0 0 26 26" version="1.1" xmlns="http://www.w3.org/2000/svg" xmlns:xlink="http://www.w3.org/1999/xlink">
    <!-- Generator: Sketch 51.2 (57519) - http://www.bohemiancoding.com/sketch -->
    <title>github-black</title>
    <desc>Created with Sketch.</desc>
    <defs></defs>
    <g id="Page-4" stroke="none" stroke-width="1" fill="none" fill-rule="evenodd">
        <path d="M12.9991875,0 C5.82075,0 0,5.96732755 0,13.3300584 C0,19.2182436 3.7245,24.2142039 8.8911875,25.9769939 C9.5411875,26.0994562 9.7784375,25.6879164 9.7784375,25.3346919 C9.7784375,25.0181228 9.7670625,24.1800477 9.7605625,23.0678905 C6.144125,23.8734756 5.3811875,21.2809412 5.3811875,21.2809412 C4.7905,19.7414157 3.9381875,19.331542 3.9381875,19.331542 C2.757625,18.504297 4.0275625,18.5209585 4.0275625,18.5209585 C5.331625,18.6150962 6.0181875,19.8947018 6.0181875,19.8947018 C7.1784375,21.9315741 9.061,21.343422 9.802,21.0018606 C9.9198125,20.1404594 10.2561875,19.5531404 10.6275,19.2199098 C7.7406875,18.8833468 4.706,17.7403658 4.706,12.6327733 C4.706,11.1773885 5.2121875,9.98775512 6.0441875,9.05554243 C5.910125,8.71814641 5.4640625,7.36356389 6.1709375,5.52829619 C6.1709375,5.52829619 7.2629375,5.17007326 9.7459375,6.89454178 C10.7835,6.59879959 11.895,6.45134504 13.0008125,6.4455135 C14.105,6.45134504 15.2173125,6.59879959 16.2556875,6.89454178 C18.7370625,5.17007326 19.826625,5.52829619 19.826625,5.52829619 C20.5359375,7.36356389 20.089875,8.71814641 19.9558125,9.05554243 C20.7894375,9.98775512 21.292375,11.1773885 21.292375,12.6327733 C21.292375,17.7528619 18.2528125,18.8800145 15.3570625,19.2099129 C15.8234375,19.6214527 16.2394375,20.4345354 16.2394375,21.6783188 C16.2394375,23.4602696 16.2231875,24.8973267 16.2231875,25.3346919 C16.2231875,25.6912487 16.4571875,26.1061208 17.1169375,25.9753278 C22.27875,24.2092054 26,19.2165775 26,13.3300584 C26,5.96732755 20.17925,0 12.9991875,0" id="Github" fill="#4D4D4D"></path>
    </g>
</svg>
