<?xml version="1.0" encoding="UTF-8"?>
<svg width="25px" height="25px" viewBox="0 0 25 25" version="1.1" xmlns="http://www.w3.org/2000/svg" xmlns:xlink="http://www.w3.org/1999/xlink">
    <!-- Generator: Sketch 51.2 (57519) - http://www.bohemiancoding.com/sketch -->
    <title>Instagram-black</title>
    <desc>Created with Sketch.</desc>
    <defs></defs>
    <g id="Icons" stroke="none" stroke-width="1" fill="none" fill-rule="evenodd" opacity="0.5">
        <path d="M12.0861403,0.893866931 C15.3451208,0.893866931 15.7537736,0.907680812 17.0337012,0.966080188 C18.3109613,1.02433666 19.1832841,1.22721019 19.9465725,1.52387521 C20.7356786,1.83049575 21.4048897,2.24081567 22.0720526,2.90793089 C22.7391678,3.57509375 23.1494877,4.24430487 23.4561559,5.03341095 C23.7527733,5.79669937 23.9556468,6.66902219 24.0139033,7.94628228 C24.0723026,9.22620987 24.0861165,9.6348626 24.0861165,12.8938907 C24.0861165,16.1528713 24.0723026,16.561524 24.0139033,17.8414516 C23.9556468,19.1187117 23.7527733,19.9910345 23.4561559,20.7543229 C23.1494877,21.543429 22.7391678,22.2126401 22.0720526,22.879803 C21.4048897,23.5469182 20.7356786,23.9572381 19.9465725,24.2639063 C19.1832841,24.5605237 18.3109613,24.7633972 17.0337012,24.8216537 C15.7537736,24.880053 15.3451208,24.8938669 12.0861403,24.8938669 C8.82711218,24.8938669 8.41845945,24.880053 7.13853186,24.8216537 C5.86127177,24.7633972 4.98894895,24.5605237 4.22566053,24.2639063 C3.43655445,23.9572381 2.76734333,23.5469182 2.10018047,22.879803 C1.43306525,22.2126401 1.02274533,21.543429 0.716124788,20.7543229 C0.419459768,19.9910345 0.216586243,19.1187117 0.158329769,17.8414516 C0.0999303929,16.561524 0.0861165112,16.1528713 0.0861165112,12.8938907 C0.0861165112,9.6348626 0.0999303929,9.22620987 0.158329769,7.94628228 C0.216586243,6.66902219 0.419459768,5.79669937 0.716124788,5.03341095 C1.02274533,4.24430487 1.43306525,3.57509375 2.10018047,2.90793089 C2.76734333,2.24081567 3.43655445,1.83049575 4.22566053,1.52387521 C4.98894895,1.22721019 5.86127177,1.02433666 7.13853186,0.966080188 C8.41845945,0.907680812 8.82711218,0.893866931 12.0861403,0.893866931 Z M12.0861403,3.05602523 C8.88198664,3.05602523 8.50243833,3.06826719 7.23708676,3.12599969 C6.06709861,3.17934985 5.43170768,3.37484009 5.00886,3.53917765 C4.44873091,3.75686538 4.04898575,4.01689979 3.62909138,4.4368418 C3.20914937,4.85673617 2.94911496,5.25648133 2.73142723,5.81661042 C2.56708968,6.2394581 2.37159943,6.87484903 2.31824927,8.04483718 C2.26051677,9.31018875 2.24827481,9.68973706 2.24827481,12.8938907 C2.24827481,16.0979968 2.26051677,16.4775451 2.31824927,17.7428967 C2.37159943,18.9128848 2.56708968,19.5482758 2.73142723,19.9711234 C2.94911496,20.5312525 3.20919701,20.9309977 3.62909138,21.3508921 C4.04898575,21.7708341 4.44873091,22.0308685 5.00886,22.2485562 C5.43170768,22.4128938 6.06709861,22.608384 7.23708676,22.6617342 C8.50229542,22.7194667 8.88174847,22.7317086 12.0861403,22.7317086 C15.2904846,22.7317086 15.6699852,22.7194667 16.9351463,22.6617342 C18.1051344,22.608384 18.7405253,22.4128938 19.163373,22.2485562 C19.7235021,22.0308685 20.1232473,21.7708341 20.5431416,21.3508921 C20.9630836,20.9309977 21.2231181,20.5312525 21.4408058,19.9711234 C21.6051433,19.5482758 21.8006336,18.9128848 21.8539838,17.7428967 C21.9117163,16.4775451 21.9239582,16.0979968 21.9239582,12.8938907 C21.9239582,9.68973706 21.9117163,9.31018875 21.8539838,8.04483718 C21.8006336,6.87484903 21.6051433,6.2394581 21.4408058,5.81661042 C21.2231181,5.25648133 20.9630836,4.85673617 20.5431416,4.4368418 C20.1232473,4.01689979 19.7235021,3.75686538 19.163373,3.53917765 C18.7405253,3.37484009 18.1051344,3.17934985 16.9351463,3.12599969 C15.6697947,3.06826719 15.2902464,3.05602523 12.0861403,3.05602523 Z M12.0861403,6.73170863 C15.4894045,6.73170863 18.2482748,9.49057899 18.2482748,12.8938907 C18.2482748,16.2971549 15.4894045,19.0560252 12.0861403,19.0560252 C8.68282857,19.0560252 5.92395821,16.2971549 5.92395821,12.8938907 C5.92395821,9.49057899 8.68282857,6.73170863 12.0861403,6.73170863 Z M12.0861403,16.8938669 C14.2952658,16.8938669 16.0861165,15.1030162 16.0861165,12.8938907 C16.0861165,10.6847176 14.2952658,8.89386693 12.0861403,8.89386693 C9.8769672,8.89386693 8.08611651,10.6847176 8.08611651,12.8938907 C8.08611651,15.1030162 9.8769672,16.8938669 12.0861403,16.8938669 Z M19.9317583,6.48825087 C19.9317583,7.28354939 19.2870311,7.92822896 18.4917326,7.92822896 C17.6964817,7.92822896 17.0517545,7.28354939 17.0517545,6.48825087 C17.0517545,5.69295236 17.6964817,5.04822515 18.4917326,5.04822515 C19.2870311,5.04822515 19.9317583,5.69295236 19.9317583,6.48825087 Z" id="Instagram" fill="#000000"></path>
    </g>
</svg>