<?xml version="1.0" encoding="UTF-8"?>
<svg width="26px" height="26px" viewBox="0 0 26 26" version="1.1" xmlns="http://www.w3.org/2000/svg" xmlns:xlink="http://www.w3.org/1999/xlink">
    <!-- Generator: Sketch 51.2 (57519) - http://www.bohemiancoding.com/sketch -->
    <title>linkedin-black</title>
    <desc>Created with Sketch.</desc>
    <defs></defs>
    <g id="Page-4" stroke="none" stroke-width="1" fill="none" fill-rule="evenodd">
        <path d="M26,26 L20.2536453,26 L20.2536453,16.8599603 C20.2536453,14.4675674 19.3547742,12.8343472 17.378175,12.8343472 C15.8662982,12.8343472 15.0255174,13.9364795 14.6341722,14.9986553 C14.4874177,15.3799065 14.5103481,15.9109944 14.5103481,16.4420823 L14.5103481,26 L8.81749765,26 C8.81749765,26 8.89087488,9.80931037 8.81749765,8.33758084 L14.5103481,8.33758084 L14.5103481,11.1095601 C14.8466604,9.89754754 16.6658043,8.1677659 19.5687912,8.1677659 C23.1703904,8.1677659 26,10.7083307 26,16.1790357 L26,26 L26,26 Z M3.06044214,6.1283217 L3.02375353,6.1283217 C1.18932267,6.1283217 0,4.7781264 0,3.06665813 C0,1.32189281 1.2244826,0 3.09560207,0 C4.96519285,0 6.11476952,1.3185631 6.15145814,3.06166357 C6.15145814,4.77313184 4.96519285,6.1283217 3.06044214,6.1283217 L3.06044214,6.1283217 L3.06044214,6.1283217 Z M0.655809031,8.33758084 L5.72342427,8.33758084 L5.72342427,26 L0.655809031,26 L0.655809031,8.33758084 L0.655809031,8.33758084 Z" id="LinkedIn" fill="#4D4D4D"></path>
    </g>
</svg>
