<?xml version="1.0" encoding="UTF-8"?>
<svg width="24px" height="25px" viewBox="0 0 24 25" version="1.1" xmlns="http://www.w3.org/2000/svg" xmlns:xlink="http://www.w3.org/1999/xlink">
    <!-- Generator: Sketch 51.2 (57519) - http://www.bohemiancoding.com/sketch -->
    <title>LinkedIn-black</title>
    <desc>Created with Sketch.</desc>
    <defs></defs>
    <g id="Icons" stroke="none" stroke-width="1" fill="none" fill-rule="evenodd" opacity="0.5">
        <path d="M24,24.3106015 L18.6956726,24.3106015 L18.6956726,15.8736418 C18.6956726,13.6652791 17.8659454,12.1576912 16.0413923,12.1576912 C14.6458137,12.1576912 13.8697084,13.1750441 13.5084666,14.1555141 C13.3730009,14.5074383 13.3941675,14.9976733 13.3941675,15.4879083 L13.3941675,24.3106015 L8.1392286,24.3106015 C8.1392286,24.3106015 8.20696143,9.36534951 8.1392286,8.00682995 L13.3941675,8.00682995 L13.3941675,10.56558 C13.7046096,9.44679921 15.3838194,7.85007769 18.0634995,7.85007769 C21.3880527,7.85007769 24,10.1952144 24,15.2450959 L24,24.3106015 L24,24.3106015 Z M2.82502352,5.96751382 L2.7911571,5.96751382 C1.09783631,5.96751382 0,4.7211797 0,3.14136283 C0,1.53081023 1.13029163,0.31060148 2.85747883,0.31060148 C4.58325494,0.31060148 5.64440263,1.52773665 5.67826905,3.13675247 C5.67826905,4.71656934 4.58325494,5.96751382 2.82502352,5.96751382 L2.82502352,5.96751382 L2.82502352,5.96751382 Z M0.605362183,8.00682995 L5.28316087,8.00682995 L5.28316087,24.3106015 L0.605362183,24.3106015 L0.605362183,8.00682995 L0.605362183,8.00682995 Z" id="LinkedIn" fill="#000000"></path>
    </g>
</svg>