<?xml version="1.0" encoding="UTF-8"?>
<svg width="25px" height="25px" viewBox="0 0 25 25" version="1.1" xmlns="http://www.w3.org/2000/svg" xmlns:xlink="http://www.w3.org/1999/xlink">
    <!-- Generator: Sketch 51.2 (57519) - http://www.bohemiancoding.com/sketch -->
    <title>LinkedIn-color</title>
    <desc>Created with Sketch.</desc>
    <defs></defs>
    <g id="Icons" stroke="none" stroke-width="1" fill="none" fill-rule="evenodd">
        <path d="M24.8350983,24.4755032 L19.5307709,24.4755032 L19.5307709,16.0385435 C19.5307709,13.8301808 18.7010437,12.3225929 16.8764906,12.3225929 C15.480912,12.3225929 14.7048066,13.3399458 14.3435649,14.3204158 C14.2080992,14.67234 14.2292657,15.162575 14.2292657,15.65281 L14.2292657,24.4755032 L8.97432687,24.4755032 C8.97432687,24.4755032 9.04205971,9.53025124 8.97432687,8.17173167 L14.2292657,8.17173167 L14.2292657,10.7304818 C14.5397079,9.61170094 16.2189177,8.01497942 18.8985978,8.01497942 C22.223151,8.01497942 24.8350983,10.3601161 24.8350983,15.4099977 L24.8350983,24.4755032 L24.8350983,24.4755032 Z M3.66012179,6.13241554 L3.62625538,6.13241554 C1.93293459,6.13241554 0.835098275,4.88608142 0.835098275,3.30626455 C0.835098275,1.69571195 1.9653899,0.475503204 3.69257711,0.475503204 C5.41835321,0.475503204 6.47950091,1.69263838 6.51336733,3.30165419 C6.51336733,4.88147106 5.41835321,6.13241554 3.66012179,6.13241554 L3.66012179,6.13241554 L3.66012179,6.13241554 Z M1.44046046,8.17173167 L6.11825914,8.17173167 L6.11825914,24.4755032 L1.44046046,24.4755032 L1.44046046,8.17173167 L1.44046046,8.17173167 Z" id="LinkedIn" fill="#007EBB"></path>
    </g>
</svg>